<mxfile host="app.diagrams.net" modified="2023-03-08T01:50:26.550Z" agent="5.0 (Windows NT 10.0; Win64; x64) AppleWebKit/537.36 (KHTML, like Gecko) Chrome/110.0.0.0 Safari/537.36" etag="lf-dl8I2NytiAoPouorw" version="21.0.2" type="github">
  <diagram name="ページ1" id="reITNUFGv8LrnvSCWIPV">
    <mxGraphModel dx="794" dy="438" grid="1" gridSize="10" guides="1" tooltips="1" connect="1" arrows="1" fold="1" page="1" pageScale="1" pageWidth="827" pageHeight="1169" math="0" shadow="0">
      <root>
        <mxCell id="0" />
        <mxCell id="1" parent="0" />
        <mxCell id="OoSRVT0vRoyz57f_keUW-29" value="" style="rounded=0;whiteSpace=wrap;html=1;" vertex="1" parent="1">
          <mxGeometry x="200" y="70" width="570" height="450" as="geometry" />
        </mxCell>
        <mxCell id="1vIn2K1pfK5k4aqUDixq-8" value="" style="rounded=0;whiteSpace=wrap;html=1;" parent="1" vertex="1">
          <mxGeometry x="420" y="80" width="340" height="400" as="geometry" />
        </mxCell>
        <mxCell id="1vIn2K1pfK5k4aqUDixq-14" value="" style="rounded=0;whiteSpace=wrap;html=1;" parent="1" vertex="1">
          <mxGeometry x="620" y="320" width="120" height="140" as="geometry" />
        </mxCell>
        <mxCell id="1vIn2K1pfK5k4aqUDixq-15" value="" style="rounded=0;whiteSpace=wrap;html=1;" parent="1" vertex="1">
          <mxGeometry x="440" y="110" width="120" height="350" as="geometry" />
        </mxCell>
        <mxCell id="1vIn2K1pfK5k4aqUDixq-16" value="" style="rounded=0;whiteSpace=wrap;html=1;labelPosition=left;verticalLabelPosition=top;align=right;verticalAlign=bottom;container=0;" parent="1" vertex="1">
          <mxGeometry x="210" y="80" width="120" height="190" as="geometry">
            <mxRectangle x="260" y="230" width="50" height="40" as="alternateBounds" />
          </mxGeometry>
        </mxCell>
        <mxCell id="1vIn2K1pfK5k4aqUDixq-17" value="" style="shape=image;html=1;verticalAlign=top;verticalLabelPosition=bottom;labelBackgroundColor=#ffffff;imageAspect=0;aspect=fixed;image=https://cdn1.iconfinder.com/data/icons/unicons-line-vol-5/24/react-128.png" parent="1" vertex="1">
          <mxGeometry x="235" y="110" width="70" height="70" as="geometry" />
        </mxCell>
        <mxCell id="1vIn2K1pfK5k4aqUDixq-20" value="" style="aspect=fixed;html=1;points=[];align=center;image;fontSize=12;image=img/lib/azure2/general/Browser.svg;" parent="1" vertex="1">
          <mxGeometry x="227.25" y="299" width="82.5" height="66" as="geometry" />
        </mxCell>
        <mxCell id="1vIn2K1pfK5k4aqUDixq-26" value="render.com" style="text;html=1;strokeColor=none;fillColor=none;align=center;verticalAlign=middle;whiteSpace=wrap;rounded=0;" parent="1" vertex="1">
          <mxGeometry x="420" y="80" width="70" height="30" as="geometry" />
        </mxCell>
        <mxCell id="1vIn2K1pfK5k4aqUDixq-27" value="frontend source code" style="text;html=1;strokeColor=none;fillColor=none;align=center;verticalAlign=middle;whiteSpace=wrap;rounded=0;" parent="1" vertex="1">
          <mxGeometry x="210" y="80" width="120" height="30" as="geometry" />
        </mxCell>
        <mxCell id="1vIn2K1pfK5k4aqUDixq-28" value="web service" style="text;html=1;strokeColor=none;fillColor=none;align=center;verticalAlign=middle;whiteSpace=wrap;rounded=0;" parent="1" vertex="1">
          <mxGeometry x="439.27" y="111" width="120" height="30" as="geometry" />
        </mxCell>
        <mxCell id="1vIn2K1pfK5k4aqUDixq-29" value="db service" style="text;html=1;strokeColor=none;fillColor=none;align=center;verticalAlign=middle;whiteSpace=wrap;rounded=0;" parent="1" vertex="1">
          <mxGeometry x="620" y="320" width="120" height="30" as="geometry" />
        </mxCell>
        <mxCell id="1vIn2K1pfK5k4aqUDixq-30" value="browser" style="text;html=1;strokeColor=none;fillColor=none;align=center;verticalAlign=middle;whiteSpace=wrap;rounded=0;" parent="1" vertex="1">
          <mxGeometry x="228.5" y="275.5" width="80" height="30" as="geometry" />
        </mxCell>
        <mxCell id="1vIn2K1pfK5k4aqUDixq-39" value="" style="shape=image;verticalLabelPosition=bottom;labelBackgroundColor=default;verticalAlign=top;aspect=fixed;imageAspect=0;image=data:image/png,iVBORw0KGgoAAAANSUhEUgAAAzQAAAM0CAMAAABarJdFAAAC+lBMVEUAAAAAAP8Aff8Afv8AgP8Af/8Af/8Af/8Af/8AgP8Af/8AgP8AgP8Acf8Afv8Af/8Af/8AgP8AgP8Af/8Af/8AgP8Aff8AgP8AgP8Aff8Aff8AfP8AgP8Ad/8AgP8Af/8Af/8Af/8Af/8AfP8Aff8Af/8AgP8AgP8AgP8AgP8AgP8AgP8Af/8Af/8Afv8Afv8Af/8AgP8Ae/8AgP8Af/8Af/8Afv8Aff8Af/8Afv8Af/8AgP8AgP8Af/8Afv8AgP8Adv8Af/8Ae/8AgP8Af/8AgP8Aff8Af/8AgP8Afv8Afv8AgP8AgP8AgP8Abf8AgP8AgP8AfP8AgP8Af/8AgP8Af/8AgP8AfP8Afv8Af/8AgP8Aef8AgP8AgP8Af/8AgP8Af/8AgP8Af/8AdP8AgP8AgP8Af/8AgP8Afv8Afv8AgP8Af/8AgP8Af/8Aff8AgP8Afv8AgP8Aev8Ae/8Afv8Afv8AgP8AgP8Afv8AgP8Af/8Afv8AgP8AgP8AgP8AgP8Afv8AgP8AgP8AgP8Af/8Af/8AgP8AgP8Af/8Afv8AZv8AgP8Af/8AgP8AgP8AgP8AgP8Afv8Af/8Af/8Aef8AgP8AgP8AgP8Af/8AgP8Af/8AgP8AgP8AgP8Af/8AgP8AgP8AgP8Af/8AgP8AgP8AgP8AgP8AVf8AgP8Af/8Af/8Aff8AgP8Af/8AgP8AgP8Af/8Af/8Aff8Af/8AgP8Af/8AgP8AgP8AgP8AgP8AgP8AgP8Af/8AgP8AgP8AgP8AgP8Aff8Af/8Afv8AgP8Af/8AgP8AgP8Afv8AgP8Af/8AgP8Af/8AgP8AgP8AgP8AgP8AeP8Af/8AfP8AgP8Afv8AgP8Af/8AgP8Af/8Aev8AgP8Af/8AgP8Afv8AgP8AgP8AgP8Afv8AgP8AgP8Af/8AgP8Af/8AgP8AgP8Afv8Afv8AgP8AgP8AgP8Afv8Afv8AgP8Afv8AgP8Afv8AgP8AgP8Afv8Af/8Afv8AgP8AgP8AgP8AgP/k+OTEAAAA/nRSTlMAATV1qMnZ3c22hUwICU+Huc7Yx6VyMQIYKzMjEA983//xnScto/Tadgwier2rW3Hv/B2q/etpObv+jRrE9X8KDfcfrvNsL+XiWWHm3igHuA4p7sU8y+ghSdvSFaAe1yCvzKkLgvabrE1VXONAwTewR5wXG31zooB38pFD1vDcUFfgKi7Dl55Ks28FeLFSfoS+S/uZExwGRNWGtfoUEu0EZurTiCb47ANe6Yk/QtEkivmLPc+mrVpgjMo6xqFWTo44O49RkL8ymFOStxaT1Cy0lBGVJZZB0Oea4Rkwn2pFRuSkXT42p8KDaLJneci6vGtjdF/AbW5we4FlNFRIWOgUOWsAABvgSURBVHja7ME1AsIAEACww93dW9z+/z62zkxokgAAAAAAAAAAAAAAAAAAAAAAAAAAAAAAAAAAAAAAAAAAAAAAAAAAAAAAAAAAAAAAAAAAAAAAAAAAAAAAAAAAAAAAAAAAAAAAAAAAAAAAAAAAAAAAAAAAAAAAAAAAAAAAAAAAAAAAAAAAAAAAAAAAAAAAAAAAAAAAAAAAAAAAAAAAAACel8sXiqVypVqrN5rBO7XanW6v0h8MR+P4fJPpbL5Yxh9arTdJJt3u4l3YH45J5nS+xCe73u7pg7378I+qTN8/fg+rFJfYdbCwXMhP+IGNkEEzQgxBVliBCJEOwYJoItWWZluwZWJPaBoggQgJ1tgLWLD3Lqy9997Lt29H0+aZnGfO/Zy53v8Cr8/rnDu8zlz4qx777d9dUkr4gP74lfS9B4gfqF9GBL8y8MCQaHVQZhT/1vvgQZI6BgxGE1mHZEuy0ZDtctDEvt1EpaGH4jeG/TEsKeKw4WjOiD+FhJIpfPhINGfUaNEn9w9ZaOqIMZISxuahBUd2EEqecePRggkTRZtJk9GsKd0kBUztgRZFpg2S5KD8raJo0fQxospRR6Mlx/SV4DsWrRm2T1ch+2YcNxOtOV7/m9k/nSCBV4A29CgUsix04iy0Ljpb/5vZP+0vARfaAW2as6uQTXN3QpvmiBJHzUMbJmRLsM1HHCInnSxkyyl7RxGHuaJB11Nnok2nSbAVIS69i7sK2ZBWUoq4lIkCp5+BOHQKSZCFz0SczjpbyHOhPy9AnEaoezNr2VwJsoWI377nCHlr93MRv0H638z+6RAJsj/BQPp5U4W80+38CAxcIL664CzErVyCLAYj/XepEG9Q7oWlMHK4+GjiRTAwWYLsEBjq+HvxAl3cCYYOEN90vWQmTORJkF0KY0cslPaiwy6DsRLxy+VnwUyE0fxGZdVUaQ9aVJYOd6JZXARjEmTbIBF5JUskUVQROxNwJpolsWFoAaMxs+PlkhhaugxwJ5ql05EICbIrkKjM3cQc9boSiSpR9mbGaMxVVy0XM7SirBLuRLMk1htNMZrt0A4rYzUSP6qpXYV2KNH7ZsZoDEyfJPGipavRLiU63swYTR3aKXOsUDyuykA7lah+M2M0BqrLuktbaM+6NXAoGvM3M0ZjZm2sXlpD4YZ1gDvR9MtAKxjN1fDCDtcIteza6wB3okkrzoE5RmOuvJ9Q867PAByKpqATWsdoboBHGsvGSFM0o3gNHIqmXzkSx2iMjazladP0mJkAz5ToeDNjNDfCQ8fcJLSla26Gh0r0v5kxGnPRWwYI/dPE/QCHopl6K7zDaAxkFWfLX1HfbXLgUjQ3TYCHGI2RWbeFhMK3jwRcimbbmYgTo7kD3rvzLkl1HdYDTkUzbg0MMBrvRTcMklQ24JYo3Ipm8VrEjdEcDCuyitMkVWWXDAMci+YimGI0Fiy4W1JSaP9ZgGvR3AMDjOZeWLP1ffydWUeiuVNJNIwGkb26SWoZtCEKB6PZCBOM5n54hQMdS2KlgIvRlMEco7Gn0wOSKu5eALgZzY6MxsiDsO2hwyQVPDwHcDSaMRFl0TAapD8yVYKu20kROBtNBxhhNGVIgmHFuQH/ndmegLvRzIc5RmNfxwIJrgfOAlyO5lFGY+YxtA+3B8c+DrgdTaHSaBgNIkVPSPCsMB/NYDSuexKJ40BHRaw/jDAaRpPi24NLnwIYDaOxLfNpCYpez8A+RqPQs0gIBzqeq2sEo2E0BrQOdOgfzWA07nsePph+gbjt9CkAo2E0yZW5UNz1QgbsYzR6vQgLFAx0aBvNYDSMRsFAh7rRDEbDaOw7Y7645qVNsI/RKHceLAjqQEd+ESxgNIwmsAMdM4pzADAaRvMILAjiQEe4YTNsYjSMxkDnm0S/uTvBBKMJsiooUD5RdFtcFIV9jIbRGJhZN0T0yi6eCQ0YjRJ/gQ7Da8OiU6jwZTTFaBiNAuM3ikYdjkRTjIbR6BDNGCranKLimGE0uhwPRbLq+jo1msFoGI0CsxpCokZBD6jCaJQ4CcpsfZD+0QxGw2h0iRa9Iv57pSoCbRiNEntBAXUDHUuMfmeW0TAaBUb4e9oUdIIOjIbRGHjoVfHLrnOgE6NR4nwoFSk6WfywqCwdajAaRqN/oKMidia0YTSMxkCfeyS5zp4MLzCaiATZa1BAyUDH6C7wBqNZyWh8VPn8IkmO5eelg9F4pI8E2TRo178kV+yrqB0IzzCaoxmNz6ZPEtsu3xEeYjR/kCDbABdkPu3UaAajeZXR+K/6wefElhWPVYLReKqjBFoRFDAa6NA/msFoXmc0Sqx+Q7z35jJ4jdG81VUCbW84JHOhC6MZjOYBYTR6NN7YXbyz58GN8B6jeU0C7m3YoX+gI9wwARYwmsG5wieNMptmixdeug42MJrBK4RPGn1u7Sft1e9QWMFotkoTRqPRmu2GSHsMsbQAyGj6vyMpYGc4aWA7TpuQpdEMRhMtOllSwS1wVOd3JTHv7QQrGM2mjSKMRrfyiYpGMxhN/1i9pIj3oZ/5QIfRaAaj4ZuZ0mgUDHSEChfACkZz80ZJIVvBbePH2R/NYDR8M9MfjY2BjlPMf2eW0fDNTH809gY60kpK0QpGwzczA8ciAN5qCNkfzWA0fDMLUjTAnQdJyx7+AFYwmmjRE5KCMhAM0Yz8Fkcz0mEFo7n5LtGP0ZgMdBiMZjAavpkZ2A/6mQ90GI1mMBq+maVuNMBOF8gWQpfvBDsYTef7RBhNQHT88L40+au0gy7tAzsYTd7r9cJogqRyx/WZ6ztWIk6M5lGYiew1VVLaCUh1jGYp/2bGaBiNmYdhIO/Aekl1tyLVMZrsSv7NjNEwGjNTEKdj7hMROhQpj9Fsx//NZDSMxsxhiEPkpOXyN3Q0Uh6jkYfQph3ukn9hNMRorkEbVn4Uln+ieSBGI3vzb2aMhtGYeW4EWnbMXNkSXQQQo5Hd8tCCPP7NjNEwmmaNa76ayPHLhRgNo2nW6D5oavx7Qk18DGI0f5N9fwS/tuqTsBCjYTStGLuhGv+2+dO+QoyG0bRhxeHH9okAmPnZk2/WS/OoHMRofqXmuaP6SivoGRCjsYnREKOhK2ETMRpGQ4yGuoAYDTEaRkOMhhiNIo/DJmI0jIYYDR0Bm4jRMBpiNLQ9bCJGw2iI0dDnIEZDjIbREKMhRqNIJmwiRsNoiNHQF7CJGA2jIUZD+4IYjTJ80mz++Lgv9/9qlxe3rkYQRTq+f8epxQ8e+jKj4ZPGG1nPbgzLPzx3+HoEzZEfTZV/GPr1U4yG0bRbetnJ8itv3IkgOXe2bCl08TJGkwougz07Nt0CDn0zHEHRo1B+K/eKSkYTfA/Bmsv2lGZkF+cgCLKK06QZb/RkNIwmYUcskeZNPAHOixadIs17r5TRMJoE3TxEWjT7Zrjts7nSogsqGU3AfQs7cnpJK+pr18Fdb70TklYcwmgYjZV/4O53NMJNOZfOkFZVbGI0wTYHVmxOk7a8kAEXlU+UtkxiNIwmAadJHN5cBtfscI3EYTyjCbQPYENkkMSjpnYVXLI2znXw1xkNozH2kMRp0bOVcEXjjd0lPienM5ogOxc2fChx63Ul3JC5UOL2FKNhNKYeEAP39IF+y94UA0WMJsgGw4YOYqIidiZ0yytZIiaOYzSMxtQLYmZRWTr0qqyaKmYOYDSMxlS+mNp1DrT6fDcxVctoguxIJdGIFHSCRpMLxdwnjCYZGI0sifWENr2LcyUBHzGaIFuvJxqRQVURaBIp6iYJOTBJ0RCjEdl9MPT47D5pitHQTrqikVDhAugwqyEkiXo9edEQoxHJLhmm82tmA18GORr6TF00IouLovBXNGOotMcfkxsNMRqR93aCn8ZvFHErGmI0EmrYDL8Mrw1LO30X5Ghoa53RiMzw6aeeGsvGSLt970M0xGhErs9A8pX3k9YxGrpTbzQiL12H5Dpjvngi5lM0xGgk3LBOz9fMBn4IcjQ0XnU0Is/VNSI5qsu6iwF+GqAVoxG5qhzJkLmbxIXR0DHqoxFZ+hRs2/Fy8dIu/kZDjEYqagcq+JrZwGk+R0OMRmSFxe+hI0VTxWNfBzka6uxGNCJjH4cd+54j4ko0xGgUfA89uVAs+F2Qo6Ed9Edj8Xvo3sVdxYb/z2h0YDQir1Slezpn1k3sKAlyNHSzU9GIPPwBvLL1fSLBj4YYjUhBD5++ZjZwIaPRhNFImgffQ2fV9RWLPg1yNLTJvWhETimK+vA1s4F9GI0yjEakw3ok7phxkjhGQ9e5GY2ECkcgMSNrw2Lbj4xGAUZj+D20ha+ZDfwhyNHQFGejERlQlNSvmQ2cymh0YjQiszeZf83MaFIao5H6jwYiXqtq6yVJLkmpaLq9dHbhBR2yxQ2MRmTPe6sRj+qD9xTPMZqaSecPx9+kX3fcQkkNq52Mxnwf+pmrJIkOSZFoam6fjC0900FSwVPuRyNyelvpd7xckqo4NaK59jr8RrSqrziB0UhFLA8ty/u+QjzHaF64CM1YNlScwGhElr9YieZVPr9Iku2n4EfT/cZGNGvkQgm6ZQGJRmR0FzTnsnMk+Y4LejThhgloyVuLxRGMRuTss/Bbk88W7zGa2TejFevrxRWMRnJjw7Glt2K54osPAx3NxBPQuq8l2M4IUjQiue98nIO/y7noxFzxyaUBjmbIFTlow7Dl4j9GY6Bi13diJbF3dq0Q/2wT2GjCh49E27aRQJvuYDT6XRHUaN5bj3isqmE0f8VoGE3++1HEZ6kE2Y6MxoLt9Edjd6u+ToKsI6OxoC540YQKFyB+mSn/pGE0jGbuTjCxQIKsD6Ox4IaARTOoKgIjpSn9esZoGE3aqb1hKMonDaMxdGOQoikYBXMSZJMZjQV3BCeahz8AGA2jse/goESzvJkFOkZzFqNhNBYGgRgNozF0rzvRmE/PMZpOjMaC+wMQzdgjED9Gw2gYzaKWjxlGM4rRWPCg49FUxM4EGA2jSaYyt6NZugxgNIwmuR5zOZrRV6JVjKYHo2E0W1pRVglGw2iS70lXo6mpXYW2MJoFjMaCZx2NZulqgNEwGl8872Q0V2UgfoyG0TCaPR+sRlwYzcuMxoIX3YvmglmIH6NhNIwmfC/AaBiNn85zLJr6YxE/RjOC0VjwiGPRPAlGw2gYjYmfwWhMzGI0FlQ5Fc3QnozGyFuMxoLjnYrmbTAaPmkYjYle6YzGzHBGY8FJLkVzBxgNX88YjYnQy4yGTxoFzncomtFgNIZGpng0jOZERsNoGI2ZQxiNqc2MxoJpDkVTxmj4pGE0ZvZiNKYmMBoLNjgUzWuMhtFoUORQNNMYDaPRYG9GE2TrUjwaRrOB0TAaDd52KJoiRmNqFaOxYGeHotmb0TAa/vWM0TAa9+w+3qFo3mY0pgYyGq+9UpUOh6LZmdGYWsto7O9Uqo7mFkbDaMzZ36nUHM37jIbRmLO/U6k5mq0YjamVjEbLTiWj0Y/RKNipVBDNsYzGVB6jsb9TqTqaDEbDaMzZ36nUHM1+jMZUf0Zjf6dSdTQnMBpGk3Q1tQMBRsNoGI3RTqXL0dzKaEydyWjs71SqjuZQRsNokmnPujVwPZqjGY2pnowmYeGGdYDz0cxjNIwmaa69DhYwGv1KGU1irs8AAhHNRYyG0SRF3+I1CEg0HzMaU8MYjblwwwQgKNGUMxpGY9/sm4HgRPMMo2E0tg0oisIiRqNfb0ZjZEZxDhCoaK5kNIzGplDhy0DAounCaExlMZr4vbceCFw0jzMaRmPNKUVRBDCaIxiNqZmMJj7ZJcNgH6NhNAE6ZhYAwYxme0ZjKofRxOGXwUBQo/mc0TAa7w2qiiC40WQyGkbjtbSSUiDA0XzBaEytYTStKxgFBRgNo3HGwx8AAY9mX0ZjqpHRtGx5WToCH81ljIbReKYi1hMIfjQPMRpT1YymBQVnAakQzbeMhtF4Y+zj0IPRMBqOZmiKZg6jMVXJaOyPZqiO5gNGw2j0j2boiuZcRsP/p2mn3T6HVl8zGh3WMRqD0Qx//Sw2DGY0ps5gNP9W8X0eFHuU0ehwLKMxGM3wVy+xYT2jMfU7RmOwAOirnmFGo0MvRmMwmuGrrcSKzxiNsU0Ao6k5cCDUe4DRaHE7ozEYzfDRgiVixdaMxlhNn1SP5vp5cMHPwmjUeCma0tHMKF4DF+xUL3aMZzQJeDCFown/vA5OKO0ljEaR+nkpG801N8MN6feILccwmkTM6JKa0UzcD45ovE0YjTI1T0ZTL5q+V+TAEWuvFXs6M5oEzX85xaIJ3z4Srriom1i0A6PR8fve6qPpsB6umFwoVm1iNIk7pSpiPxqOZhjqXZwrjEaxDoPtR8PRDBORom5i23WMRsegRD5HM7zw2X1i3xQd0fC0yedoRvvNaghJEqxmNDpOm3yOZrRXVnGaJMVTjEbHaZPP0Yz2iWYMFWE0Tp02PbyPhqMZBsZvlKRZxmi8Om1KgxbNw3PgiuG1Yed/WkVM8bTJ52hGwhrLhkgyTdcRDcdZ8zmakajyiZJcOzIaHadNPkczErPDuyKpGQ1Pm3yOZiRibaxekq6jgmh42qiKZoU7x0x1WXfxQR8d0fC0yVdzzPSHKzIXii8mMxrvhfafBVOLRYWCjnDFU2+IpHQ0PG36igK9roQr8kqWiF/Ogg1Ci9+OwkB1SHy36NlKOKLyyRUiKR4NT5tN4rea2lVwxRf/T/w0SkU0PG32Ep8NOAOu6FMgwmh42uBR8VkxHDGsOFd8tkBDNDxthmUzmrik/+UJ+StGw9PmQYkHo/n2VVHgZQXR8LTJOYXRxKHHf8g/MBqeNhcKo2lTVnFX0WEWo/H/tNmphtG0JbphkAijSS2/nIuW9OgmjKYN4+8SPd5iNEk7bUagWS/3ktYxmln7h4TRpKTsQ7LQ1DGDpFWMZuZxM0SV4YzG1x8Rq6xbIoxGw9fMBjYzmqR6db8ts6l+7QVpFaPpfJMIo0l1i2Pbr8VfbX7mk+XSKkYz4auw6DOB0fig29jdey2SNjCaNVePkfgxGmI0mWNFp1WMRiVGs3qpaDWQ0SjEaFbGakStakajDqOpLntO9BoDRqMNo/niadFsLqNRhtH0KRTdvmQ0qjCa/iW5otxFjEYRRhMpOlm023MNo9GD0Tx0mOj3NRiNFoym08XigOwJjEYJRtO7uKu44AYwGhUYTeS1V8QJG9MZjQqM5s6DxA0TJ4DRKMBoRtwWEjfkdwSj8R+jySrOFkfsPhKMxn+MpvwocURNyRowGt8xmvEbxRWnTwEYjd8YzcBYvTji+gyA0fiN0VSXjRFHzCheA0bjO0ZTvoc4ItwwAWA0fmM00/9TXHHNzQCj8RujKf2yXhwxcT+A0fiO0Xw7VBzR94ocMBr/MZqiJeKGUOHLAKPxH6OZFhI3bBwPMBoFGM1lFeKE/PejYDQaMJozBzgy+TgMYDQqMJpacUDoxFkAo9GB0XSqcWnGntEowGg+EvVO2TsKRqMGo6leJMqllZQCjEYPRvO56Bb688sAo9GE0fwkqj38AcBodGE0D4hir5wfAaPRhtEcJGotifUEGI06jGahaPXoKIDRKMRozhGdxh4BMBqVGM01otGisnQwGqUYzTeiz5KvzwQYjVaM5klRZ+kygNHoxWimiDJPZ0IJIUbTvN1EkxVllWA0yjGaO0SPih/yAEajHaPp/YRosXQ1NBFiNC04T3QY+zjAaJzAaKLzRYHn6hrBaBzBaLDqevFbTe0qqCPEaFo0/WTx1xtPQSEhRtOyUWPFRy9kQCUhRtOK/oeLX7rf0QidhBhNq7YfK36o/2QVlIoIMZrWVVY9IUn30iaotVKI0bQlL1YhSbXHoVBsshCjaVufwqQuAOZAs3lCjCYenz8tyRH+ajN0O1WI0cQlUnSyJMHcnaDd7kKMJk5nfr1ELBt6LNTrI8Ro4vdyg9iUXTwT+n0nxGhMXPaq2BJqGA4HjEwTYjSGp003saLDkXBCoRCjMVV6YVfx3ICdo3DC20KMJgEjGkJeLwCWwg13zhBiNAn54BfxTuhPI+CI8cuFGE2CItMGuX/MGJs3Q4jRJC6rrq94YFBVBI7oWRsSYjTt8lZt2PXRDAPRjHwhRtNud46TdikYBVdsfZAQo/FCNOMoSdiuc+CKtxpCQozGIzPrhugfzbB/vhGjMTG8tl6MVcTOdOeYGSrEaDx2zE1iqOAsuGL8RiFGY0F5P7d+Z9bgMRoWYjRWNJaNkTitcOeYMT/YiNEYGBirj++Y6Q9XlE8UYjRW7XCNtGnpU3BF55skKOhHqHXrHtKq3baHKzYfHpbAoC+hV3VZd/2jGaYnmvvobmi27pN6aVbF9yvhilv7SaBQL+g2/QKNC4AGzpgvAUPh/lDuoquahH4lXLGutl4Ch6ZBu+rXfpXN6A2VcETjjd0lgGg+9IseeUCHriIiaXNP2ykKV1z0ggQShTbBCZUjp58xoRLuWP2GBBVtC/Le2tdrJLgoA+SxyqrlEmQ09WWQp7qMloCjhXkg73T8vQQf/TIBpH8dkVSZOB7khcrnF0mKoJp9ZqLdKPNpSSG0uCiKdqHJhZJi6L0jkTgaVpwrKed/27sDzqriMI7jzwAo3EISHKSsQmVyw1BYGFFGkZVrYMoEbAgU2QQVEmMhMgIKtIULAwFCJjEKkF5BIwIT8vzjdM+95/N5F1/4/Rib365o9PMuzfOPP5VsfQ6kDSW/VJGHtOHY4r4gTdpwPvu1i7TBaQbSptxtpxns8W2zwmlGOWmD0wykjdMMpI3TDKSN0wxGLG1YvhUgbWo6zUDaMG1nFmnjNANp05AHXZA2z+9GHkibVytiBmlT+GSYB9Kmez9A2hRdGOaBtFlbeRFpIG1WB3SagbSxMwtzf6SN0wyQNleXngVIm4IHwA8B0ibv1IOAmtLmQjWCjs8HNCdtnGbAwqbTDGhx2mxNBUgbpxlIG6cZtDJtnGbA2Pr0UJ9m9AOanzZOM+DscKbN5OL+gEFZOOg0A0Y8bd5tBEibvB2nGUgbpxlIG6cZtCVtPlUN13sTIG2cZiBtnGYgbZxmwPClTed1gLRxmoG0cZqBtGmE7pXIA2lz83qAtHGagbRxmgGNSJvu4YAhdGhQaXPgSYC0cZqBtKntNONG5IG0+XE0QNo4zUDa1OT00uWA1qaN0wzo15w2j6ciD6TN9nqAtHGaATWlzYTTDKRNke/9AGnjNANqShunGUibwtOM2WgLuPPWaQb857TZETNImxKTL8cDpI3TDKgpbXozkQfS5pIHQKSN0wwoTZuCmLkWeSBtOl8jD6RN/jQDpI3TDChOm+UjkQfS5t7PyANps5aIGZA2ydMM4MTD1WqPp+8/BvB3s496Z6rfJjonL0YCMLexe+7L7sx4AAAAAAAAAAAAAAAAAAAAAAAAAAAAAAAAAAAAAAAAAAAAAAAAAAAAAAAAAAAAAAAAAAAAAAAAAAAAAAAAAAAAAAAAAAAAAAAAAAAAAAAAAAAAAAAAAAAAAAAAAAAAAAAAAAAAAAAAAAAAAAAAAADU7hcAyU2KwAW0HwAAAABJRU5ErkJggg==;" parent="1" vertex="1">
          <mxGeometry x="235" y="193" width="67" height="67" as="geometry" />
        </mxCell>
        <mxCell id="OoSRVT0vRoyz57f_keUW-6" value="" style="endArrow=classic;html=1;rounded=0;exitX=1;exitY=0.5;exitDx=0;exitDy=0;entryX=-0.031;entryY=0.323;entryDx=0;entryDy=0;entryPerimeter=0;" edge="1" parent="1" source="1vIn2K1pfK5k4aqUDixq-16" target="OoSRVT0vRoyz57f_keUW-7">
          <mxGeometry width="50" height="50" relative="1" as="geometry">
            <mxPoint x="350" y="200" as="sourcePoint" />
            <mxPoint x="400" y="150" as="targetPoint" />
          </mxGeometry>
        </mxCell>
        <mxCell id="OoSRVT0vRoyz57f_keUW-7" value="" style="rounded=0;whiteSpace=wrap;html=1;" vertex="1" parent="1">
          <mxGeometry x="460" y="144.5" width="80" height="125.5" as="geometry" />
        </mxCell>
        <mxCell id="OoSRVT0vRoyz57f_keUW-4" value="" style="shape=image;html=1;verticalAlign=top;verticalLabelPosition=bottom;labelBackgroundColor=#ffffff;imageAspect=0;aspect=fixed;image=https://cdn2.iconfinder.com/data/icons/boxicons-solid-vol-2/24/bxs-file-js-128.png" vertex="1" parent="1">
          <mxGeometry x="473.98" y="210" width="50" height="50" as="geometry" />
        </mxCell>
        <mxCell id="OoSRVT0vRoyz57f_keUW-3" value="" style="shape=image;html=1;verticalAlign=top;verticalLabelPosition=bottom;labelBackgroundColor=#ffffff;imageAspect=0;aspect=fixed;image=https://cdn2.iconfinder.com/data/icons/boxicons-solid-vol-2/24/bxs-file-html-128.png" vertex="1" parent="1">
          <mxGeometry x="475.5" y="150" width="49" height="49" as="geometry" />
        </mxCell>
        <mxCell id="OoSRVT0vRoyz57f_keUW-8" value="" style="rounded=0;whiteSpace=wrap;html=1;" vertex="1" parent="1">
          <mxGeometry x="450" y="300" width="100" height="150" as="geometry" />
        </mxCell>
        <mxCell id="OoSRVT0vRoyz57f_keUW-5" value="" style="shape=image;html=1;verticalAlign=top;verticalLabelPosition=bottom;labelBackgroundColor=#ffffff;imageAspect=0;aspect=fixed;image=https://cdn0.iconfinder.com/data/icons/long-shadow-web-icons/512/nodejs-128.png" vertex="1" parent="1">
          <mxGeometry x="473.97999999999996" y="340" width="50" height="50" as="geometry" />
        </mxCell>
        <mxCell id="1vIn2K1pfK5k4aqUDixq-40" value="" style="shape=image;verticalLabelPosition=bottom;labelBackgroundColor=default;verticalAlign=top;aspect=fixed;imageAspect=0;image=data:image/png,iVBORw0KGgoAAAANSUhEUgAAANEAAADxCAMAAABiSKLrAAABI1BMVEX///9SsOcuO2k8dsM1csJ8n9N1fJclM2UeLmI7d8YqbcCjp7lTs+k9eccsN2UvQnRCq+ZLc7FHZJrK1+xDdbsxSHw2XJg7cborMF8wcME6bK9Utu4pN2cQJV1OpeDw+P3h8PrL5fc5Zafc5vNOV3yn1PJzveu1uMYySniVzO+s1vLn8/t1vuu8zegXKmBetejT6fiFxe3r7PBGktRPgshymNFXh8q43PRFj9KyxeRGjL+VsNvb3eQGIFs8bJxkj82Vmq5kbItYo9VWntpFibs5YpGlvOA/d6pKmc2/ws48R3JtdJGYnbAjU4aawuE/WIM9caY/VoETZL2NqdhTqdVJh6pPm8E2TW89YX9koNlBfbSotcgyT4uDiKHMz9gAE1GKmblTRGb3AAAQHUlEQVR4nNWdeUMTSRPGM5loEpwMUUCDkxAEXUAkuIIXigd4ILrrurrv4Yr7fv9P8c491dXH9DXJpP7Gnvl119NTVV0dG43p2Hjn1pSeNCW70+/3f1mf9VvYs1tO3wmt/+t41m9ix9b3Y56Y6c6sX8aCjX/NeSIkb+7ldAfyxEzzLadUQIhpZ27ltP4LgydmujvrV9MyUkAIaX8O5XSXz5PIaXfWb6hmtzwx0LzJiSsgEsl5POsXlTSRgLCc7s/6ZWWsRECI6V7t5SQhIMS0M+tXFpqcgBBSneW0o84TM9VVTo9ZIY8kUx3zjPv72jwxU93yjN17RjxO7eSkKSDEVJ88w0BAiKkecjIUEGKafZ6xKx3ySCLNOm2nkm4LTLOUkzUBIaZZycmqgEikmchJPmfQYpp+2l6BgBDTvam6XkUCQkzTC4yqExBC8qYTGFUrIMS0v149UOUCQkxV7+TMsm/FTFXKad1AQCb/sqqd3ERA/Z1dg4yjosDIQED9e9Eb6ZRV8hHsy8lAQMX3X7n0BQaxHBgZTC+Zbd/t6w9kMc8wExDpLmMTOdkqwCqVfcvfYddETjYKsCa+DyqL43sFnEEU1e+bBka2BBRtlOBTaVKsNCrAGjk9+NRnHRpA20Zy0t7JTQQEvh+wQ6OIPE1qlpqB0S0Db4cCIjdKgGoiJ40CrMEUEo+j1xl8Kh8bfJ0U5WRZQOgPQORpElqpBEZ37ZybcNcZfKZMKpjScjLxb5hzitYZfCpNHicVGBkJCDygRCPwU2n0dVqnEQizJSCJiYfaNpGTuNHD0sHjWG6dgZwMgmFRnjENAaF/VsjJIOPnpe3WBKSyzvDbZZJUstL26QkI/eOK5GRLQDpyAAMYyQkGRiYCguutu85gkU3Sl3y1DT7bpCaX1jytUQLnt+fFKCZySjZPfQHhfXNv4YmjzuR57wfHD+A4JuWVHZMkiBLj3oLrnioiecHZ+aA5IohMvvP93xt7vTVPx1mAgHYBUat3qjJccPJ54DcxkbacgrPFrfA1Wo/UfYVMsFO4iChkOpQeLnBeRDzN5iQjKnZyjYpNND2TkGg1fIkDNaa+A7K2SMjJBpwQhcNJysl748c8OVG454KtU/GLkkxPJyGKfUUBaIfKrGPGjMhtycgpFlATECUfI1iSU5FT8KYZTU9GFPmK7NbLiS/Dr0FOlAwnHC/ykGZunQdFwAADI+nILDjbToYLiZ6uZi8hJSdB0NJ3ei23YBINFzjvB34TEsGvEHyG1Mc/OHmbDQeJQjsoQ4Lz95gh3VMXMh1wlsnzEg/JzB98RlsbjKxK5RROj58Ph4jK5FQa/HvOE4jEllNw8gU4XLM5WDwK6EeB6FcYwHrBURP6L0kklpNUgub1D1vC4YCHJAvkv2cuJQywBAFsND2E/2Ii/tYLnVsYZ3hrhJzI4QKPFJA/eOHQC5Q+EezkHDnlHzQRkcuMZKCAysTqOQctOEXFcMhDQp7tMx5P/FSwkzPk5BUftBKiVg/7CvBquQ2VKScpAZHP7aPzDcgTHJ0PmtjYRHjr7f+6yxuWYx5yvUhO2ENCAXEdDjybV0JPI0JZIrj1wjFVgq1TUp37pIf4g7cSPPHzWccctIBKiTJfIb7gSgExuZN3N0iHEwsIMVGVdIaAyolSXwGDKSct3lqxk3c3wCv4zTfyPA6qBt8hIkIG0TsuUcR0C02OKtMpg8gfyAgIMYFrf5ufuTylRO7qw0yUugWN4Akm8t+uqfLETHnA/7HDByolal1KR1miNnQp85wXKz2SyP8j0Kuv9J3N5F0ut60QLcimcdCinIUi2ljWmpzgZPuTXSJXuSqS5Cw0UVchb8/HCnfryRXrRC2VIkuw9jYWME3Ui6M9FQvDnSjhtk+kUBXx8pwlJ0q/iDGRXN6eT04S7lRCJFsVCSPSbGtLiVo3z5KoOyFSKAPk0WBFRDKzmyf9gCgMqgIn8sOMSHJyQLhTFVHp7KKQawXIJkItiBJOMRAMd6ojElZFvIBM6ZorXTgDwZtwrwMDiRecDHeqJOJXRYKjRRSiLJK1CzJ+FZbByAKYAlHL5RuXiD27wdlvKMb3/e94OWH8Go/E3skZCXe1RAw5edQ7cJIgjyiCuayqmheQBbCpEOHNis5ZuEmQ5xyQAy2jhcT5uxLRM30iFwRGxI6d8IiSIM/BrgfUFG3zrIS7+jVy8yILLsKVJ0GoEgF06Xnv2QnqdNYoCYxQEU6yiuAh14ujRnaFZ6pE4R+9bGKHk6siUDv5I16FZ8pE7lW0QPJVBLyTd/Fiz4aoe5UsWylVEbxTKKfuNT7QrIgGb0/UqgjETl4/IqUyXM5UHGfUj0itDJcjhXKqKdHKgQ5QlMG/qCtRV7nnxEkOZRd7NSXqKZy550BRBl9jIvn+jJQniQdrTeRKJNuFw6XxYN2JJGtXIB6sGdFNTCTRc+KQGXz9icrlRGbwKVHvugWirxURuUI54SqCTaKq1ij61y5nJ/ec7yipm5M14hUr6RLYLIj+1CKKCnv7mGcNl8BmQtRYOuSukpDIbS1/I9povjGP7SWIhv9sWSVqNJ62ONVXMVE4yPeCyfsLZ/CSRP7odtYTbo2o0Xi2wPzbMqJwmKNvyQL969+cqkgZUWf4IX8Ni0SN3Ycs1ysncls3zvZDh/sPt4ogJmpPPoG3sEkUyYn+cwmiaNf79pc/5L6IiGh4fJloB7dL1Gj8l/p7KaLwrwR9FSKiwe2f5BvYJbq/76AimywRroFJEvnDN3hOxURXGpcUiJJ2MKrIJkd0U4MoaZG8WxlR3sxJHpdURuQPvsSlMnTj2hoR7K3zYM26KiLQIkn8FoclItzMCWrWBdGiRaKoRRL2Yd6xTLS5RsXP+XFJRuT73wVDqRHRPcZF66IdoqUFRrKTyikhit5hTTSWmKhLELFqs8HZ33aJWLWDpA86IvIHn08CT5vI304mJyEaNOkeY895MZKKveWJ2MlOvJPf9FMRGxAFsS4jIubhRnTIK5dNqBAxD+ojOW0M3iddgCZEXlTQ715nng4mnRpVELnM6y/eadamabRG8eT8YAnoJOlrq4hIeP1FSHSjjCianDNqzOKmhSzRQ9U6g6CybUxEG7iqVBmRoBRnnSg4A50aFRK5vJZVy0SoS6JaohazIdgqEdUlUS0Rs2XVcza6XdYwZUR+84heoCNcY6maiOqxi9utVm5wg1U+kf+DOl/HvXVKRAKgst4tKKe03cr/cYOzTDyicBa66DNH97VNiQjs5KAy7193mevEJvIXb1Ld0py7OFMhynZy4h38xQ0WEovIb17vdfHkUH1t0yWKK9v4PpC/eEOGyB/8gMsZT46g1UmW6KUpkdu6iuY0uuKKGzdpoigBwS2rp/uCVqfpEZGdTmn66aHuOYooTUBI8u410WWp2RD5gy9p9IwbNwmiKAnykr8ibvuZn8PaJhpsF+knatwEREQVAd7brh8RWb9xiCukBVG+jBnTabY/1I5om0o/gVNlRD5dRfCCg5oSrTBu++VOlRCxqghe8D2tBdWPqMtIBzM5xUQDxkXL6KDZXoeG7TXiVFcOEiJmGW4t+qTWmchlp4NPWjdYTfpZTGqT6JF9IlY66K0tv6Bz+eDNMPm3NSfiVFdoniImrT0R91YRIaC3RcgzB0RuyYVgz/kDxqTzQSRqWcUXpuaDiF/Yo5O6eSEKjdEBTghoZkSbPT6SkIjayT2HdWFKhkjuprwsUaPxjt0UVEbkosuznF/0KCfyJ+fP7RI1xpc4TCVEcWEv42GU4eSIOsOt7EXKiA5liULXe8R0vVKirHbF/UmcUqLh8UXxGhaJGo09l9FjV06UdktzfxKnhGg4eg1bnawSMeUkQxTt5PyfxBETTc6JVqct0Zl7KZHrvsNIu5ew68kRucsS/QwMona2xSX2/PZEBCRBtHC4hJk2UctqlUS4t+5ixO/RkyQKmV5uYiZSTtURDYvm1MThJiIJSRO5rYWv1E/Rw5bVyog6zQ/wmc9vj8p4JIlcd7X1lJJT0bJaEVH7+BXxxFKHUyFiyqnoAM+I2sLeLTWi4egjIaCtiei3qTSIQqaH1H83lXWAJ0ThV1B4s1lMRFa3fCQgKYfLiETTSlhr4RlGanyN5RQRxSLe1CY677YAUaezRTxGzuEyomVZolBOq3uUnF4uxESJiLWJhreTyYmJ2iNSQFttOYfLiKTXKLKFR9ROHsrpaiftMDchamyGkxMSYQGFDicMEgyJQqZL1E7+dCN7ByOi6CflVq+NyJCn8Ure4TSJmHLKzJAojBqvEyFP44OKw+kShXJyKTnZIiLt+Wslh8uIlIFcppwqIFJ1OBOi0PVoOVkm+jBUdTgjooiJyjNsEj3QcLicSPS7WyJj5Rl/CpqMREQdRKTlcLGNPnFvfskwUXkGpxJRQtSGVYTI4ZpaDteMIpeLSA3sm18yxsgz9nq8NecRoSpC6HDHmgsEokHBRcoSY+QZvMIeh2iCP6nlWR3HyHTq6ao9OY2pSgSfCFURDByuPfqE3uOrvpyoPIMpJwZR6va5PX99rLfDhSNdxv/1SxIp6hkjMGIU9igiXEUIkwZNh8PpVG5LgnK92BhyorZQTASvuEamlDQIR4LGvZdcaguHeCfHWyhJRF5xbTR+nk80Ha49ecXlCW1sU07kFgqJcBnuwUfdHRuPxDCrcnoK5qcgotz+lYGAfuJnMsxETlSeUax5TgQOTmIzEFB7Cz+PY+9a2q5H5Rn5mqdEuIqgmHUDwyMJbfxVFHOKjJFnLCU7eUw0PEYhz2XdmBSPVGomcqLyjDgwCol8HPJcOdYVEB5Jxgzk1MNyik48l/1O21bIIy8g0viHyWXGyDMOV//BIY+ugIbHF7r/Bzv3MLnUGHLaI3bs8YX2F2ikKCDSDOS0ykjbc7vS0c0ZdARE2p6ry8RI21MLQx5NHpx96JmJnNYZ4z14rb1jj7QFRJqJnJ5Rr/BKP+l+zc4ZdExUEREbzjO29MpwTeoM09iYvRlSBuX087Z+zmBDQKQ9WzXNMwxyBlbSbW6cioiEJXmGdpWHSt/tmYGcen/rhzyWBUSatpy6ot9xExlO3+2bZlFZ2N3IN4mk29zGWkVlLaIKBUSajpx0iDpNvZxBx/aUq2DqRLiLpmpTlZMqkXLSbW6KclIkMs8ZdGxJRU5KRO2O/ZBHzhTOaBSIprJjc01aTtJE3HOGaZnskacsUbUhj5zJHXnKEbWPqw555EzmjEaGqKKcQcvK5VRONHMBkbZeVgUrJdItk1ZnJXIqIVI6Z5iaCeUkJBoef6yNgAgTndGI70rNIuSRM35RWXBXqnYCIm2Pc0bDI2qPLsoHnbGxi8rcu1J12rF5xiwqy9yVqrEx5MQgwkd+9TZKToy7Uhf13LG5huRUcldqLoyUE0k0OZ99zqBjsApG3JWq4JxhWlYUlcFdqZkm3eb2Lj2j4d2VmkNLz2iyu1I1SLrNLZZTcleqJkm3uYVyiu9KzbeASHu3cH3+BUTa+H/Tyhn+D/IW5zp2zsroAAAAAElFTkSuQmCC;" parent="1" vertex="1">
          <mxGeometry x="478.32" y="395.5" width="43.37" height="50" as="geometry" />
        </mxCell>
        <mxCell id="1vIn2K1pfK5k4aqUDixq-38" value="" style="endArrow=classic;startArrow=classic;html=1;rounded=0;entryX=0;entryY=0.5;entryDx=0;entryDy=0;exitX=1;exitY=0.5;exitDx=0;exitDy=0;" parent="1" source="1vIn2K1pfK5k4aqUDixq-40" edge="1">
          <mxGeometry width="50" height="50" relative="1" as="geometry">
            <mxPoint x="380" y="290" as="sourcePoint" />
            <mxPoint x="620" y="420" as="targetPoint" />
          </mxGeometry>
        </mxCell>
        <mxCell id="OoSRVT0vRoyz57f_keUW-9" value="build" style="text;html=1;strokeColor=none;fillColor=none;align=center;verticalAlign=middle;whiteSpace=wrap;rounded=0;" vertex="1" parent="1">
          <mxGeometry x="354" y="155" width="60" height="30" as="geometry" />
        </mxCell>
        <mxCell id="OoSRVT0vRoyz57f_keUW-16" value="" style="rounded=0;whiteSpace=wrap;html=1;" vertex="1" parent="1">
          <mxGeometry x="228.5" y="390" width="80" height="125.5" as="geometry" />
        </mxCell>
        <mxCell id="OoSRVT0vRoyz57f_keUW-17" value="" style="shape=image;html=1;verticalAlign=top;verticalLabelPosition=bottom;labelBackgroundColor=#ffffff;imageAspect=0;aspect=fixed;image=https://cdn2.iconfinder.com/data/icons/boxicons-solid-vol-2/24/bxs-file-html-128.png" vertex="1" parent="1">
          <mxGeometry x="244" y="395.5" width="49" height="49" as="geometry" />
        </mxCell>
        <mxCell id="OoSRVT0vRoyz57f_keUW-18" value="" style="shape=image;html=1;verticalAlign=top;verticalLabelPosition=bottom;labelBackgroundColor=#ffffff;imageAspect=0;aspect=fixed;image=https://cdn2.iconfinder.com/data/icons/boxicons-solid-vol-2/24/bxs-file-js-128.png" vertex="1" parent="1">
          <mxGeometry x="242.48000000000002" y="455.5" width="50" height="50" as="geometry" />
        </mxCell>
        <mxCell id="OoSRVT0vRoyz57f_keUW-19" value="" style="endArrow=classic;html=1;rounded=0;exitX=0.97;exitY=0.167;exitDx=0;exitDy=0;exitPerimeter=0;" edge="1" parent="1" source="1vIn2K1pfK5k4aqUDixq-20">
          <mxGeometry width="50" height="50" relative="1" as="geometry">
            <mxPoint x="380" y="320" as="sourcePoint" />
            <mxPoint x="420" y="280" as="targetPoint" />
          </mxGeometry>
        </mxCell>
        <mxCell id="OoSRVT0vRoyz57f_keUW-20" value="" style="endArrow=classic;html=1;rounded=0;entryX=0.75;entryY=0;entryDx=0;entryDy=0;" edge="1" parent="1" target="OoSRVT0vRoyz57f_keUW-16">
          <mxGeometry width="50" height="50" relative="1" as="geometry">
            <mxPoint x="480" y="270" as="sourcePoint" />
            <mxPoint x="430" y="270" as="targetPoint" />
          </mxGeometry>
        </mxCell>
        <mxCell id="OoSRVT0vRoyz57f_keUW-22" value="request" style="text;html=1;strokeColor=none;fillColor=none;align=center;verticalAlign=middle;whiteSpace=wrap;rounded=0;" vertex="1" parent="1">
          <mxGeometry x="336" y="269" width="60" height="30" as="geometry" />
        </mxCell>
        <mxCell id="OoSRVT0vRoyz57f_keUW-24" value="response" style="text;html=1;strokeColor=none;fillColor=none;align=center;verticalAlign=middle;whiteSpace=wrap;rounded=0;" vertex="1" parent="1">
          <mxGeometry x="330" y="305.5" width="60" height="30" as="geometry" />
        </mxCell>
        <mxCell id="OoSRVT0vRoyz57f_keUW-25" value="" style="endArrow=classic;startArrow=classic;html=1;rounded=0;exitX=1;exitY=0.25;exitDx=0;exitDy=0;entryX=0;entryY=0.5;entryDx=0;entryDy=0;" edge="1" parent="1" source="OoSRVT0vRoyz57f_keUW-16" target="OoSRVT0vRoyz57f_keUW-8">
          <mxGeometry width="50" height="50" relative="1" as="geometry">
            <mxPoint x="380" y="370" as="sourcePoint" />
            <mxPoint x="430" y="320" as="targetPoint" />
          </mxGeometry>
        </mxCell>
        <mxCell id="OoSRVT0vRoyz57f_keUW-26" value="axios" style="text;html=1;strokeColor=none;fillColor=none;align=center;verticalAlign=middle;whiteSpace=wrap;rounded=0;" vertex="1" parent="1">
          <mxGeometry x="336" y="375" width="60" height="30" as="geometry" />
        </mxCell>
        <mxCell id="OoSRVT0vRoyz57f_keUW-27" value="" style="shape=image;verticalLabelPosition=bottom;labelBackgroundColor=default;verticalAlign=top;aspect=fixed;imageAspect=0;image=data:image/png,iVBORw0KGgoAAAANSUhEUgAAAgAAAAIACAMAAADDpiTIAAADAFBMVEUAAAAuXYsxZ5AzaJIzZ5EzZ5EzZ5IyZpEyZ5E1ao0rapUyaZIyaJIzaJEzZ5E0Z5IzZ5EzZ5EzZ5E0aJI0aJFVVaovaI4zZo8zZ5IzZ5EzZ5EzZ5EyaJE0Z5A0Z5I1ZY40Z5A0Z5EzZ5EzZ5EzaJIzZ5EyaZEAAP83bZIzZpMyaJA0aJAzaJE0Z5E0Z5EzZ5EzZ5EzZpEzZ5EyaJEzZ5EzZ5AyZpAzZ5A0aJEzZpIzZpA0Z5AxZ48waI8taZYxa5Q0aJIzZ5IzZ5EzZ5A0Z5AwZ5ExZ5IxZ5EyZ5EzZpE0Z5EzaJEzZ5E0aJIzZ5IyaJE0Z5EyaZIyao8zZowkbZI0Z5AyZpIzZ5EzZ5EzZ5EzZpE0Z5EzZ5EyZpEzZpIyZ5EzZpIzZ5E5cY4zaJAzZ5EzZ5EzZ5EzZ5EzaJEzZ5EuaJczZpkyZ5IyZpEzZ5IzZ5EzZ5EzZ5EzZ5EzZ5EyZpIyZ5BAYJ81ZZIzZpEzZ5EzaJEzZpFAgIA0aI8yZpEyaJEzZ5EzZ5IzZpkyaJAyZpEzZ5EzZ5EzZ5EzZ5EyaJExYZI2a5QyZpEzZo8zZpAyZpEzZo8zZ5EzZ5EyZ5AzZ5EyZpA0Z5EzZ5EzZ5EzZ5IzZ5EzZ5AzZ5E0Z5EzZpE0aZA0aJMzZpMAgIA7Yok0Z5EzZ5EzZpIzZpEzZ5EzZpIzZ5EzZpAwYI8zZ5EzaJE1ZY8zZ5AzZ5EzZ5EzZpkxZ5M0aJEyaJI0aJEzZ5EzZ5EyaJAzZ5IzZ5EzZ5EzZ5EyZpEzZpExZ5IrVYA0ZZMyZpEyaJMzZ5E1apUyaZAyZ5IzZ5EzZpE0Z5A3ZJIyZpIyaJA0Z5I3ZJAzZ5EzZ5EzZpEzZ5IzZpE1ZZEyao4zZ5E0aZA0aJI1ZZIzZ5ExYpMyaJE0aJEzZ5IzZ5EzZ5AzZ5E0aJIzZpI2ZZQzZ5E1aY8zZ5AzaJE2ZJM0Z5EzZ5E5Y44zZ5E0aJAzZ5E0Z5IzZpEzZ5E1ZZA0Z5AzZ5EzZ5I0aJAyZpI0aJEzZ5AzZ5AzZ5HDW1MqAAAA/3RSTlMACz6M2vzirGYdDDhggqTG6NOXYiwDG1B+3P3zwIpUK16Z1eaqbzMBDi1MbJu3wczd1se7s5+YiHtuVUU5IBEfZ6/x6a0lKkNheJSgqYV3Vk89KRQHY5PD7vDRspBrRkjbkgmR0O3nvqWLFg9Njs369c7j9rFXCD9995YeBECJyvKhCkeE+Ou5hlEVE6IZc50y7NlcaHqesMLU12r7o2ROOygCDUq0I+XYS3I3EMjqML3+bQU0dltYz422fLXhyX9fLwZJp0KVGC5SrjyPHHBlWRfSnEGa4Dok3ic2RN8axYC/+YP0MWkmeSLEhyG8qxLkce+oWro1y3S4U3VdpoEmeo8xAABULElEQVR42u1dZ2AVxRZehNA7BCWogCChSUIvQigCAkroSG8KIsUgoUVCkSpNihSF0ILSWwhVihgFniBIkyI9IL2JIoLlPkjuznyzvWbvxf3+QKacmZ1z7u7MmVM4zoULFy5cuHDhwoULFy5cuHDhwoULFy5cuHDhwoULFy5cuHDhwgWX6pnUaQI8KghImy59Bqdn6sJaZMyUOUvWbNnVeE+RI2eu3IFOz9qFFcjz7HPp8gZpZz1FvudfeDGP09N3YQKB+QsUfMkI6wGFCr9cJNjpB3FRtFjxEi+ULPxKqZC8oaGlQ0JCypQtV7h8hYqVKueq8mrV3NXCxK/r6jVq1jLJfB6v1a5cx+kV8D1krPt6lXol6lds8EbhNwsmIXXD8MrpGzVu0rSZhcM0L9Ki5Vut1JnUuk3bdu071EmV1CmsY2qzv3whOnXu2MXpJfcRZMyU/u2273RVWq2Abjne7f5e5WeL9DA1Us9evd+P0MmoPqEhH/S1mPleRPbr/1+XgQEDB9XWt6GKSlP2w8odBusfKnrI0GGqJ7YUx/CPOvxnzwYjRo56a7TRhRsz9uNx47WP1bN/dw1vfWfQbWg1p1nhACYUKJzP9NKFTkxfXcNYzXtN7OM0lxURVLbXf+tcMOmTtyx7GaeZXED5BzSlYEr89qdOK1O2dveCqUeFt0+fPn2BT9NPD5+Reuaszz7XOPjsOf+Z3UB0r34xFq9+2rnzZIQgutFbdrK9UKmJo2rMX7BwfKz88y7K/8X0oV+Gqm50sn+SymnWpAQWN1xiDy+Wdl4mWsABy23avns8ESEf5lqxUseDj5hSoPMq5S3P6vCMTrPHbqypbUiFqhGj14avgW9pdIu0tgwTt3TuukwDDD1//Pr2hccokJ66wRhdP8H6fnE2sj8Z2SduTFYVRG+ard66dejmt14pXHBLxccYWvCjV9p0UxHQWl9tfVXP714CsWuWb5Pf/27/NNYced/Fim3qv62paXa80r3lY258HZ6EhhUrbilZeG1pXQeGuBw5N6xruV2hRcTs2h/vHPlNngTxLAMnffNtrlHf7ZD4nS55c90ai87s8bt2F5Kb3Pu7nOaULZiUVenXP3pz1vr9V+yR797zf71KvPfmqtf0CIIkgj4vWKBpvIYJF13z/Yy95BsSWnLnYmsXJHbfD3Iymm6/o6yyA9EHZK9RYtqU/PGbaK2ERtRd1j71WNlfjwqyf3RQ563CoV6j+pU+/HYmW1YluOoR6VdbvuWaF8Q/0OSwzM9x85bii4wQnHB03U/v6DxMHtty3Pc+r0VrhEhO9p2qTs/MQqQqKfn2j+yX2dwlX6qB4TW1vgtqlTzu9DLIYUrBKIkJB1RMME/aN7BGajces/dFa9QeJ+Z1VxeCkMwjnF4FJewZKvWB3Jzb6XlZguDKEsqPkzMmWTnGz9PTDZfnflDhBSn1sEXzLDx1+jGeKfJztTA9qt2VlVaLJx613Pc+Wboxvpz4wXYUt/7BmndoeUaS/QFzF9r8iMFnMzWqPGpyuR1pBa/y0X1Dtr3xwoHG+bUod0YckBCBtkVtnrvtKCJWxa76wq7Bctc/J7xiinvTRsurHlU/Pf/RhbyJql+guLQXSq47rvYVKnrxkqjn0p/tm35KoIroFrZMR1sHHF+vLf4MP1th20jz3x/u0YeAHG+UKKL47jv7k+iOtFYvW9fLZtQX7v7zzrd/0IxVvvNuqbodtHOcX8rqFIAkdE13+YoC0Sk7hB2Crtq/ZDYhOLXgWfpcba6xa8L+IkWKfFPd6Bew+RclV3sCKijr7GOvPfNpeOfCY69vDu3W6jFeCz0cUvarj25UrrLvpjaFb8fDGrkuQNojHWVVkbHTRfYDFfxUKRQ7WfAgF1R0qYH7q44rcX53ulKliR4+qGtoyK3bDb6e832ThXd0jR54QqF99Pr0H2a7pMCixNI1h7bIpHp0DMx115gIeLoe6SDH1h5vChuX80s7gdgjgp//HAWjp4y7thY+rGYemDjtqwa/Ns5t1nAm9/JyGq37Yw6XL1FV+aU1YpBhW7MxFabIEN14T9B02CEnOWkMwRXYZ8iRX65l2MHdm3XZhxW60PvTusZu5YIXpM6rk0+RZWdUVXoHZ/jN+BV3tt+ltX0ZbgkahvrfYaAh+wSTZX631SvfMmYelu/62zv1+lpeO3/SGKPybUuv4I7wzGbDEuDplkXSVTD4quAnMfWU0wzVicvM9GNelmzUs8T7xpfuCVqXWz5FqxAEf3vfjDVKwPPrZO9oA6dPNU44sYGkUnSkwE2mVhOnWaoLyxgBrtVBqs0fRy7pWSg53Ot3YI26YjF+XmnTI8Vdrye3G7uT04Rw9RkqtV+91oZtdel1p5mqAwtb49RXF5Fo0uuBFdz3Ymr3TWFK84nOHGrNQLUK/iEzxEC9ewtE60ESd+KparONopY5zVbN6LkUJ55WYgNzNJuF7E9CzIU/ZXX+HZeap0/QpoX0uWBEbzPmroU2iSnGCvQoid87zVituI3T7iZWxq+/bzX7k9Hph2ckPgY3Z1k8TKH60hqmo6ZskB9KaEkusxvkmE2cX2A6Tnqq6FJ7RG/7PDSziY5VsQcirR9m+BbJDWFYYTNEIz8RS+8X7H1DTApo0s2jLq54H9Hx5ahFn2MpFDorHK3aBXtGGv2D5LmwhSlpK3VNRHAN60UTNcRp7qoj9hxMOEj42RpgZrushkSR1dcjqyJ6iJEvS0+Jp/+mkxmaw+eJCN5Mw7SoJbWh9i20x/n+JajMs0PXgujEdMFogRVt9UOZOkdCB9Fzrymab4qkqgerK1l902kGqyADfrXeEFQe72YnQ0oKRltp016T4gMJQ9Pg50xJ3UmRBUNYCNPgsCEr6pRDW5hrDsF12k512xkTWCU4nu03eFmrB3FvSGwFHplScEVsEF6aCSSgrU8bCjaCmeYTHMyn2/pCzi5Qque2xzFUiDESR7NfjF4SJ+Oh8O7vDivKFZ1msgJG4Kb1b7Zuna38DzrNjnbqnnma2lBT7NA22FxAsW4DBfQmMVvLuG+dZrM8wnFh2Krl9rLhPDvaHynGf4+n60HROoR9ZopiRA0BvWrMO6WQlUHzLEUYmDNNZX8YO+1lQln2w1gkZQNClRfFdRjQzxzF3QIThNzM7Uo6pxkthxswyY1MTRPD0cA0oRD72azb1TxJXZg2RbgU8W+ao7hWYA95OgJrCzjNaWlMAvOo55maxWN0Pr8+BLAfzUlnzJPUicTKwsUInGiO4irBhUM9rByjePnpGD6kMwz6BSuKaojVYQYzmGlkNGlmYgxzhTZPsTPNEXwgYPLbWNnOaV5LYXAEnSCrlClv79o/z2wAYtuap2gE7wsjFgZ+Z5IgayfS/AOoSzQQKdV2VKTzi2R2gOPsXfko1tOikr2jyWOM8KYmvqY5gqtYRdoVDCZRwWlui9EFDOM6Y8We1bofXRcqMdM47Vw44MSNgiVpbsh5iKIte9nwI1SNNhc02w7Mg5VgEuSU0/vc+nCY8bLJY7O0KSKuvmBNipowGH4C9nceWwaqZnC+BjBi/AnLG9m76AHM7UnwQ3tHU8OHggvCs8fM0WMdA6tCTVpfcxgbQucWg9ZNCWasJTUgJzOL6eYJmsNtgddfXXMqyaDiDDUMtOdr1kFgwzoRyw/Yu+B9GKv6xZZYmptCW8GlZEdze5LWzA73KNT84zTHWYTBVe8aKF9pwmdCCz7GScTaGhhaI8YKLsFNXoKUxvv/4M9pRT7fii6ei84sBMsr6n9kPWjF6MvmmSdoAS4IJMCkFqQw0poDFS86zXMGYH1zGYqL2meUl4QNOIcwJ08AgLJsTKD4UubINcZHhBdtSc6H0IxasEfij/JXe5e6EPNj223vYNoxi92hHzJnm7Id7xpfoeWdnGY6ogadV1YoDjTojqsVzLn7F9/JCNWdvZ3+xVzCmk+AFHxqPb6Ug3QtnRbGuv7e3nXOx9yX3DJP0DLsZpfnd1PEpoGVYHUob+Q01yma0R/fXbRpNPn1UwNzJ3ba3rF0QmAQX8EUsaNACSKMP+c02ylepLPCrUk1e/NDxGCeoGBbXQ50I4j9eQ4wpRNODZS60+LuTrOdAiwBxkHxVXsXmVGFPLJ3LN2IWsCs0Akzx6EHQOg56WKHQQ0+ElFv8Y69a4wR1YNz2DuWfkxlb6n7myAVAIsK24kxTrOd4Cyd1C0ormvvCh/GKfSydywj6MQadHxoghR4BK6gpXE+E1D+Uzqp5VCcxd4FXodTuG7vWIawjTkMDvjAOCXYUFSD4gycjwCs3zAaXIityxuJZ8B9tg5lFF8zq/Szcd9x0HekguI/OB8BDcB0D4S+mZ0pAj2ej3AGNhudGEQQ68Pzp2FCW4AKKJV8JZB0fASZ0lgoNrPt0YB9MNRNe2XNMLoyztyBZYzSmQlUQBGQ3mnOe7GQTukiFB/R/6A6EIoKpxvm6dmDD5h7oaZRBsnMAiIhtHir05z34lk6JVR/bNf9nHrQEEZKMJ9O0C78wKxUuEEqnwENMHob6jTnvYCgILAH/NnelcXgUzZ/bMwgCNW4XLRBdeXnQGMuLf7Qac57MYjMKAJOppltXdg2OAGbIkFZgmOMk19+Yz6SS4BEO1o8kfMN/EBmlAZK3zbwoNqB5rIL7U9JbQIzmbUaZYhGFFAA7cpepznvxUdkRq9AqTkXeRXE4T1QQ/P07ARjvpvRWNZb2EvCYfK+05z3gobibEALY201BtuM45sKzWY/sjMq4XqGaIDSKz0tzeY05714l8wIFMF1bF3UUTD8lBRhowk0wMWKNeS7DL6WG2npKqc570UImRG87ezdmWM2b5sNj80j4BtcreNGdizgDLyJlr7lNOe9oK9gOJv9a+eSrsZrFhtjz1oENlrGbQMUTtDuYPhwwWnOe0HcceLASPcjA4+pGRiB8o8U46Nx9MflumlAHwjOdo1p6VjOJ9CTTAiPq7aaA6LC0cfPAElIy5ivb9FPAO4UQO+6zWnWJ4NeBeA3yU5FcBzGSQtJMTaawHlcsEn6XwEQfQRMgmZxPoGBZEJwQxtvp5E+qgHH++hFIIvWjAG7fg8WyE8A/m+3nWZ9MjqSCcEFzTU7lxMDkBxMMSaawr+4YtUj9HaHIOKVaamPOAhTKzXwChyo9xH1ALMQ2ByAyiqwrwC9AcTi4NTzNS0+4jTrk0Gt1MBCxU6fIGYL0Dcl2WgC53HJFuvMljkc+sL3YwvnExhBJjSFFubS94S6gObA+VOUiybQmnFk/0df5+3QFUKQnud8A2RCEK3DztjQGBXG8ZgwmsFwK7c+deAO6EoV74wJtk8IAFgDXLRxKevB2G+kMBuNg90F6DNh6Ac9p9HiFk5zXiAA+aCspY1LWQzGsTkIrZVgjMQ36eqKYdcgJ4+vuAfz8zkGZXN1PaAuXIJQbGE+bQvCohXaBiXoimYCsTAXQfFIpzkvEIAPoMxc8ixFoIVkx5Tmohkw8Wxe0NPzIO2HppZVOd8AP59SUPaVfeuIztLnU5yLJtANbcQX69FgggvQLiiuw/kG+Pk8hLK1Oh5PJz6FYbaZJ5eCYBw59AQ0AcUH2IN4VnK+AX4+eDdxzr5lxOSZ/qIGSkYaDCRbRXu/1tDtL1ocxfkI+Al9B2X2JW2Ig6BZYY7w0Thw265jG4ibKzhebed8BPyE0ADavngNaWGUZ5zho2G8j8umPW4Q3vp9SYuHOc14oQDgadW+tJ1lYZT25smlLPDg9rrmXhgPF4LF+og5ABWAySkiAC1hFHPBtxzAuzD5wOxae2EiCgiH7TOJg/gJoaVeG60PpxvtYZRzzrBRFyJb9Q0NDf0gJGTz439Cx8PsNZtNQvTtHlD8q9OMFwrA3BQRgNdhlBTMD6obkcN+qvzsghMZ5ddNq49IAOgPTkH5OM5HwE8IDVTsCxAG2o9JSu1GLzkc8hib0zqQQ6BQ+Y0LA1XXrZpGatOgD7pbTHGa8UIBwM2q4WAYqkhFBzkq2SAqW85P5i+EX96iTPM6l9Y5iglM3X08WNvCaQwijT6gEGEgrqi2UVJOANBX8b62Z9OPezDIZVFt19tzisRLTrLa5ZQJJVo6vfZEDu9qI4lhVybTYp9RAxABwHNpOrsWGGMltGOr3hl0SvG9+8dHEXazv2+BWE47Jmsjugm6DKPFXznNd5EAdIIy22w18TWDKcIOz9BwNXLFZFJvFQTcGKE+B8BWbWTB/iEQYoS95zTfRQKAoUttCw9RHgYhSaJb59QaMu+0jQ4rS1donASPGprIYtgVvAzO7DTfRQIQA3sf2+5pwTE8NiK5KMePOvInhdU2NbwCti3SPotktNBEF/XHEJbdd8JEUpvAQ7TMWBwEDQA90KEnfweVO61xz83jqj1WRJ3Vz31ClNBEGNOHQnyYoFS6x7MJRcmcTtHCIZqezQCq0DHyezyRBRfqn3ANO7zJOuufB4Z+VwCafkI66lCn+U5AY4EAc6rbJQAD6RgLEltO0j9dTuurVxfK63wNJaGdJtL/gx4QC6Gt03ynfCBz+pMWBkbYJABN6RjVq+ufbDKGWj2rB80lx2l+5dUC6dP/lT79xiqPTp+uWuSXa0y8IE2Ws30gBdlK+HrdcJrvBB3InPA1aFfK4AlWTDn2S/MTQdyrJh5jf70jpcW7jThM9KPJcPI6dBgJ5VXUHjLFQHNal4PSV7Q8nH5EaHzV9ng91/mChQvPeuOH8I4S34lJXS2d1XQh/ZXTS8lsNDCy1yottDHYLJ6t9nO+Ano2LQ2l2r5vurFEfT4ZO1x8yEbjO9NugbDR31ZOaodA/dejXT7Ztl9CO03x7X6HDmNp8V2n2U7RjEwqChbCJqe9zcpzCS5yfpWk522ZLwQtNf36NOIoO4d1rRXaomOjpsTaoOCMBcI+EhziCQLpyw6imR3V8nD6oRgcM1PLJfI9v2vGtLUwzSAbrq+o9+MX12Z3+9NNxwfeXHb+PnwOZkBTLU7i2eGblxvKP+F8B63IrOCncFbDwxmAvOBP2ppGuWvexUx760LZMtuxCcmWEHnXQWxHrk420vhvWjpCC/E3gcyPUL7Aaa4D6KdsHpTaEyq2vMwcmvwWodo3+zXsoc89UwH38Ag44NyTojEbBbuCPOTHPgREVgt13F9CYJEIHdpv2zGMTOuGZKmVaCk1geBeEvYnJ7f+8uQEPeDOwsZXX0le/8Non9Vc0xdYA5hALe89Ken6s2iK5N4KXkOaMiqgpnMpLfYZk/AnoMYfhaF0oi0CIKX+eFbC/iwunFHNN5tzRiQ+DSyaEkYDz50UHG2daIrNE/l5wesikwbihYBIHig3onm2DVnJtN6B0hm2CMBF0ej7zkm1E2VTSbj4+C0QAPa1jFbFBIIw8EPhpCLx/URHvnU3KHxRA3W0s4T0jMzh0HHQJAiR8Ol7VsPj6cfHgrEHy9zuXhNPs0oM+4oa0Eff0DJAv60JEUlFp0RjE09QfHVrCaOD/qQYW8x31EAcE7oQ1t2enEHsLzuhvpzJr5Tj7F8eTwwm27TGhR29IbyhsRoIR6YBnmtD6Q8aqGMC4mO0OA3nS2hCJwbqlmhj6XFUgMEBuNzy/kcLJOaZMZE9PltjtILJa7yuHgFswkjuCj0oozePBrtJVHwuhvKCTvOcwR06MYxbZYt3GG5+Fivs4ytITbQQG2F9mSUzegQUT3rLLjHBW/4H6qmXoVyDB3VWaP4jlG/ifArdyMTQP/Q3OwQAPZCVrhsSF4uneSeAPT8fsmRGUyhB6q0eM4gYp4+4irGhMdurBr8mDIj2HS2O28P5FGiwC4zfo83eRSdwFzdLqeGX4mvDJCNcjKtjiYEobHuKQPGZP688nkGqIb3ZpJaQWHGCOm1kdDD4kr7kNMcFoCbAaBis5ZSjG2gMX1ix5cvCWRZL+iVWhhJL7EPB3VMQ9CMyrSijKabU0JDpIgQmi6mRRLtMhwHmzbDLbmqHAOArRjkWYYDgqDw4+feOHqz1rZjRAMl1kAHqdTToorNA80pQ/ojzLeyjU2tMSwPt8MrE6+BKyk0DzqMycKDXRGAplGkP0aAA8ET7VbXxORhdg1sI5sa6Tovj2ItN53GHzg1l9i2rue9hvY9UA1IfrsIrXo/W5m9k40BDsNIKA3Gwzr6q2rg7TF89PADmxroDGThQ4eobuEvmhgYvdhgFoSq1l3rz4f1Sh4c3LIfBxDC+wEl1CqoATfDLqo0rwuDnVFtjbuD+MlR8AzRcHzLIUrMrLzAesbEQUai4KWfBjMDiUN0bBsObqEcJOwitMSr2EM7XAJm7ztLSuhYsrxCYO+N/hiigMtYK83DIlah+/QE3hz1VGweADXksHChqSTvAO4lGdHbFYdLDVZ9RP+BKv7ohAhhvw4oU92AFpZ7EFm4j16s2xiRsC6DcV5KGA+DiB4Oi25FAHN64PQwRCIAbeSuSTkLwR/W4lbB9b6TaOByWEt9V6TmfQyw98WFuAy3XXXoBRrJ3jFEAd/uMFhwDDsADt1ZpGwXqyQ2qlFGbjXkRBnO+B2qSdRdKP1V9Rv34hZIvaowC5nE9ZowEAq+nPlBpi4vzoRphdAvHu3WMkeIzgIiN4CNuhy5wHyWvyapWjPMwbwuijaM7lNrRvo2eoetDYwgRzd6I+wpACWrzLnAXJZ9gjALeJ71nfkJ4MaOmCMDL6AdqhCFjOKoBGUWGzwDuwdBqT09MfI0AW4tYYxRywATnGSOBiASFcxOVtngEVfv6oKnZWfAsySftiOwwEqj5D/ru2JA7rDGQNxboYTT4W1uR4LQuJbdIZUZoLqFmkYgKK0gXy7zAfAg0CN89UNV8YQnPGWDI/URjJOAgYYX/Et46blZuCjpc1dcXBj3DL8BBp1ktDTCyhxAOd6wPx4MJYwxmKD9NKQTnM0YC8QLMSGVPAb/qLipU8dpzP7xYRvtMfFAWoFPD8GXWR2iFiDmBBknkggluNkgDcAvIqfgagEnqHRWq6ER6AMq3Oc1pGeSnU0QH6CPm11eAGpT4AIMkzsMECxukAbgEqvkRyqbQYKWkYhAWh2eAbFAxj/NNBNJ3KW5frQ/H9CMlvsggCUxs0dAgDQTGh3yo2BIuA1W0WHgPMBg+pAE9nOa0HEqROcaAiYT1F4LwCbhjkASeUy4bpIGA2FgqN8KgxU+l+TG5P6H8eaf5LIstdJJNaGlsK4/FAENpo2bdaBU234IpoS4wTPFkAruPQMX9cR/c6mGY8wOcrwJMHPEXYXkG0Z2U9n6DJNCoRP1SVh2XUDWjGH8MokMo6wHQdLUaiEqcRDgyH8EJOkuM4jHIKsZLrOE1ozQg+nJ1K+bUAR74oFJDPCB1U2qI6l68BwjhfBbBY8gs0aHN8lBBkEHLsPspbKQ0eGeoAx3+mo9RaFgCGiqFCDuGAUZCoMKXIgMJAbdb8J7qYrWLKGgCcxulAf778VbMqROug1KgfFTvKnkGom01+oQG5XGaywqAlz0qR622DYfLoF+M0kD3MIPqZBZgpMAVU2iH8U2el28Wh6Yg6GF3i/NhvErnuRuKrThoIxZQ0seN0sCYgRFWTIoJW6GQmwhdW9vKNysFzYLRdB19RX0OK6nCGvXYFgViIQAjXMOh/vA+wZLQ8XlxIX6Ub4d63MnyzXZCM9xERfV0msmKeIlMNAByZyzSEg1RB8AgToNjiDTmUBrB1sxqPazDIvkLJrTy+li2VVcMAYextnz0JpjHZDpTuG+zOlwceHb1N0oDcq5GWzOrljILIUB2aHVAttUWaFUU1QWNnWaxMtLTmaJteGqrWJ+EOLC/MWzVD9Z2Bs3KhOiKuiD5vUkQaCBkFQZxV6QX1dPKJ22BKL6hUx0LxY2t476H1eIZ1uOfpzTUruW1ggkX+7lsM0hxIeuaXBZJYQRMybA3PgS4EKwFv9M7lmboQSWTljBrkoDTWEaL5vUQV0LeTXwBbSSrxUDn/4VYsY/zcUAmVNwUWZpIHD2jNeZdFKM3paHuoacNcRgcMkw2MgKosZrJNCmEnn/oEDTbSFqiFAUc+fE+SDmQh07clx5PH2DLdseqiTFRWwrKtYIoasFR0k3OA51oTHzhuxeBPDrSyWKYgCoeC4HXZL2NEoFttjH/Qgnkw9CUsq933OBLByeIwRigxaEiisk35ZMoSo00a4Hp9SErLUPRLeYno0QaUhrVLJsZhkiUzQuO0f+lleSM6y9GsULR91XA/QbmNV3qsQ74balplMggSqOYURoinMGIRONkGmGMIOk4iq9Ci0kRUNGE832AN/BfUCz7RTSAAkDXsPc5TE5LyHaNaAxTC5TJmrcd2kh+wTrhTg/vgTAhl8/iezpf1HpblpvDw9pezDZKBOL5W5g6aC0uhUzOrAi46P9EqgG+4aLvQoXvbwEfYzz92g+3aRPwDQxnOCkNWFxaGdR+CsxtQHbpNhD6c6NE9SXc6cHvyR+2gE8AfiBoKy2vGdMNWEDjR/hllIiVIQyY/ZtMyDgQ4F0S1ehTwbjW+sMWkGPCBGB8k86WrXEA7LQMGwQhF6xMbxgHsUe4ldLvJ/iESURPiAO3Ou5nfHH6vBYwGY3ojFGjbd17FqPQGY/2DvmH/zRMRAK/4VrckGwCNq0SEYVeQQIYZhGdbXwZzajePwoutcMMenGKgaYmJYwSiQQiX1spAEGoD24mGR0DN3liVWBHqE2F0eRzcX4C0ATgfl01GoZW4E9ki1EimG/F2stqDO0JqZQAaDwmUgWWxjMgxq6Y6ktZAhXxAp00ek1bEZAxCZg30rAeaC0QsTa5XQxac96RihmGVwbZhJVMEnIMOCXKgeazAAtAfFtbEpb7CUCJa/yWEZlQ1lIB8JTExZDKSYS7eaFZaCtwqmSsSgJuOs1XzQD36Dhwv2huVeR4TPdgOAIVelhbnNgoAiw+uJ4SjpFtoV749mFiQGNlTafZqgNwC3IQihU95nQA7tNXGiaCxgrqEZv14UNcDAmDBbT4FriQMCntJqG/gk/GBZMB5AtFI/jKHmsAS2FYDRADOT6MS5EMRqPvTlGxmxgatAg+EXhTyITXesnnLUEAEH23LxRblUUSUmgY1uIfhnktMEpEFj/gaogtf8/I16K/UhcUnctOM1UPYmHmeCo+47EEoGszrF3Cs5p6lh+96APRrLnmomCAXaF2J1NTBpcRjYFbY85z38c/dOaYRNuiK2HI0fa7URoYbNtSc7VkMHm9dwprR0PlfKamMdQEY3At5p3i+wBjfdzxyllI6ATcBRm+xsFg26usF4DRuJcLFN6DYcKLV7EiB37ov4WKAIkUmL6Ms3AlDPatqaI8VgAM5oyaGqJlhdV+a0lgzPfnC2shcSATRnMj9roPFT6YHkIZoJ+BwM4WHQQheJpRz0B8o35rkIYiIhi1zTlBLdzro8tMKNhPcLnxHtAfTMEYgDYYLTjTe6wAZF5VC8wsB8zrbJmKmgGef0XThJwh+A5jtMDloeKB0/zUDTiezYbis5aYBU2hBA2eLCPxXuUdWwQgBp37hApfEADYxhYC3QRXLQLaC/Kf+gGagz8r7l92eCwAuB2rJ+iRRDqYUh1b+M8mfefys3fhYIsARwS0oeVyQvO+vpchTBUQLAgPgiqJXrUBw2wZC0EI+Sw0ZPo0hqD8uB6TmTrIM0mdW7tCQAUuD4ZV+pXzP0DaDLy+t8QCHyz6jb1SuuFm630jFLQAA+Vx+yNRNsCmjV4V/IvtMdXWVP9SAiUDPFqj8ILTijytmHFBPfeuBN6TnqjFiFuDC1IROSrF6XvwWuB6YEgIDLTgPwC1L2TKtCSVML5SDJmE4cvZgoRBcsDkedzKrrQCw9TO5Qu3Ymu0Jcw3gfNHQPIIVIrs0rBwasDwAEayPg6D/gmvGSCgEXF4s4OWp+gbxofRXY07gDC0JkZfUj9CR/oEfUHBGX9Pw8qpAa5a4g04hmAQ7hft4z8b7p0bsJ2Uo+HwMG8ZE/7zayAS5ctxIRUwAOx/0JOnuwULCz4d3G3dvRnjyoe6u+tBY1wReuDDRCBesViCk7qDv5K3neakUYC5JgZHtcJH8Dmgl0t3bzS6ymCZrbokluJxI5ZkpoEYlfHeCTDX/bgD8NcXAJMnBL95PS0Iy4q7wD16lYsBGGz9X1v5z+S2gXsfuCr0BgE+CZHDuENoPOmnO4DHmEQ5E3QWyi146TKa3HM6O6NxZWBamwWgEB6BuQvJhXgK9OrMUbfFmAle8tnsMOoARxCMkK7/nS0GOs/ozUiExpU2pDQUAL9W3Knk38R3UJQcS2w2xpXIgEpAxkjYz/A1fQw0gw2z4BuAG6NF+rL+McaVe20XgOHjcUnKJZVhlOLvkkowKBxXErv7pw4gGZBKOAiMeJQiZGsF+nUpBVyWAO629kTYLgCsLdeKJyUBcBfIhT4p+Qzb1EH7FMzB7HcIXkIfBCIzS8ZE0AuMPlRET0fGuDLcfv57RqPxGTfWw26Jk8JmBKGPAnNO7opRx/wPEMALU6YvitS5hhLAZAR486gK/EEGp0kBARBbhmCclwJPWjDepGswpirGV/BDgLVTENpJ69fdiNAVbSd0xHhiYjBbnspIEgF1cU2ueyIxzsuTIGGRzDsCLQELjeD8Gl1ge4bWTlaoXzF/OLNoymCS7mZNEQHw1MYx5zNvhOgn5gznsZ7xdPErZxApgHvAWijuYtijU5oe941mu15INsRNsMZGWRVxp2DQ4Jfwr46Pq++iqiA4BDrm9UNDIBbgtxOAxyErfnqYoklzvNg0mIntV42dTIOJ+YJxs5I2fDuxgMkfwBiJ+yUGwFUduuIYTvMCYEzuFt3V1gkjuQYbjjCoG5lk1udJJpAQlMmEUOjVJpbze8ylj4PxohIsSCbMWt1q8xFMxNfQwBTjP5tHAJD+8feBsfhn/KeLc/4P+KkH4DlgsgWr+h0zkqYgdEy+JSvupbWiquTqBH/u8XyEBT0xUMFn3FOA5nCxjaatHSxY1CDG5K75MA1d0B2kmdXZTJUwVnJ1Rno8rZi7HsY87bjTzLMEb9AHwpTH0VbE5HieGelmV9UOTDLeTzSMYB0kuflQcNC7grcks5xmnTXA6zaMFGCJRzajC+CO91Frj9a1wVaGr1fHfYm1yR/nGcbs88pBh4D83FOBBPhd4sXGeitW9S6bQ/OLCOXmQahxG5Ki/GcDJnox2RPAXAIw6VVnck8JJtNnCsWLWEtCR5dkx9qonJqM+RD/o3EIq/CSSKmTJ5G90Yh/CZpHZeCeEuB2Dz+EloTnjevIDvZIUbeHSZdTdAuYhJeFK5Pak52562OOgKm5pwWBkPIKBX6SJVEZxgxmR3tGQcGQiJ43loaH1oRWk9iphg3HmNEcNwGn3tqf7UAEgGC+Y/A1qOcOVx6rEtjR8svHocJYNcHTUlwAPOXYmf7pKcUEfquAbWdwTw9+gedC3db3OtdPBg0Ew62UvWtGzXrKXAQL0IKZ6J5hU/DPqrh/YU1J/R056IOh8i6+kO4VlMRB4Xjppe1NItH1ypBLqVnUqsbMkzkBxjMxj6dzEsjYdFeV9L++nP7vJoMDOX8C2F31KQrlo/QuoDT6iMLn1JVMJIYxIay4jzaAYfKJvzdguzTsiaHnilwvfFkap9yn7XQ/OiVkgJcbRmiuZlE+6dZFhCMGZ5Z4u6DWqL8j/BckA0JUY5RYZKoj1tdLfV/6ojMo3RSnGasZa+m00R6S+MWaxZi6oiFHbBAG6E3EL8AshwSA3fcDmOhph4NX1j3699aCX3VS/omU85e3QD0657ifodyyJEJ3r4kHHZGeVTXhbfQdCzwTjKFPMckVYm3kErVaKrXa5DRrtaEo7MpuQHn0MY0PqoqTdaTG/aMdvD3xLrKe8ZHMIk1PqQVaYpTc2/4RQvw7OuO7uIH9y7J1HXNNeuRiy2v3TW6B5iNW5S0wgr0SLDNxM7bbLyQAU7uhVWaYVSlEPIUVrKfGL8g8qDMqIYumuBoY8ZdogqfM7Ib9wnk4GjblTEKEDy1a1HMD9EzHCs8k44gZKFydzWbIxX2h59GdAgQ8GI1uEU2tySecd7yu2ZRv9RgWnUENQJj/1eS1RLdmuh7eGdQBRmPSRGsCtKyuY2BKgXn+vu2AOiiiu1BrUd3sd3Cy09zVglJ0vidxG2hFoO5LfxidVfMWpc0Pr4v9JauLJlFnrIaOcSfb3tg55NqTm6/Ya5vaMq+vGH9IJVAAJoxRAy0wzIr41vCsHq/mOMuOohqQ9YTkJE7vVdBLjF761ZYWfwhChRYJwSb+YDswAvJnokqGm2N2UeMyC4Yqqu9gtCinNfsQdWSXt/O/s6nzKoElQ1Tez/5p2GLIYOnjzQg8yb7mDw4kcNvNZEfPaDZsoODmvOiXniUX9cXVapwyLoIvqSluJ+Qf+H2N8MeYnrlj7jsqjVOh/VhVzveBRqCMJZzJvM0Cc4BF2Z4URtTuoOdHMbC1uTloQhs1luoE+jVtcIipugCJmfKhOrSaKdOwdCyjBzzPV4T+u0b73KYYiDaqE2ktj/YHIbi+M0/NfqDbK2MfacZTuBSrAIplrIFOdm6kddU72pE2ChFkfc6fjyn1c+ap2Y94uPA4ifEz8xvfhOUQRNAR69SPvdLy5V7rJ6l+EDYYGF0Pelu/oJBp5KTDvNUGzKG8Eytq6l5OL9LuZ0eoL9syZpDK5GJv2cr/qTbEegKjluyOMlYrxsNmeykqg4oYfAW0EjhPFZCnI7QdFmOxrRdElYTD3cw8Y+suc/E/QIO8xBShFMNMWJH+WJHO0KJGCT6rIyNkm64WnMCi52f5d5nAsPKG9pF1YzQb7jVh41tJxaE7zRh3gl1rJ6dZqw1rYEnaoLamqZGI3QHjWOpF5OOFBrzONm2adIaexsRq4SZYdjUtRk1mpFPUTLr0I8PX+dHdKP21TrNWI8A2kA2kP1P7WhIIAmgtzi7f9CrbdKE3R0gf1q9MU4QJY9iJ47RnxP2dX89y6ij6x6ejarBFaGPxkwYSvoDXYc6YtYXLoOrYLcIolvT4TvJNBTY4N/vyFYnMS2SKfQKAPC4u3KkEXfj3CxlHsNhJRXpdvth91erHb7H3BCdezJbWgvMTlIFJY7AObpDeJS3PMjXVMPmmny9imuaBMExRjHe2bQED0sIgCdKXT9l3FN5yoP++Ez05bsD+NSM3vnwxZ81sfal2YpowwAQTct3IdbgjKA6TLoMs7KIzmdx9dgMdr2Bgvpq9gZvAXADPRk+NBmqjGgU6BY4zQiCodxfBSubHHc/nTvNVM4LR+Ik5COhzFDxclCVbXr5pLdb+Iv4CW406yUZ2CQDGtjdiBNdpn3AhDzFfPD8KKIyZsk8yflJ6FDF3Bae6hvJNLw1hm5YU1IdCXVO7BACDE36mu3fA26KAweMZl4c+h5xmq3bEYmxGxjYsv3Zt/HDBNY+CSUHf9WzT5aIW/6OVCXblj0KLhal6Ow8TPMJjNDvMtPCrrGJoGXSP2fu+rXVFYkayJMfJ8i1urmB3vUzcdCdUWxG5TArP0iH26Oyadp74GmMCm+6+1iTOjxCIezBGdMO6aVyTeSzF43LJB1pP/kUweG4JI1C0J7Ere8BROkRVXR3vVpZwJx6cg21U2Wme6gP6A0Ywx5dH2hZFoAD4WfqdOi31UZGmfbzUUQO19C957AHsQ/UcAnYclLosWC9wfL7uX7ECOC4bTH4vU1Nby6rMZRUAhySYOnzbASnjywTJ/Rfmb8prkwCAV9plrX2y9/6Gk8J8gca6q794CBM8g9N/FWv2aIggfYG91sv4QFCf76sNK6KlB5bWN+eGFnblEISEWc9paR8XMmqB9O869qpgFyPcEPkDMBxmXkbBoZ5I5KUwhlQ0E2iqa9tP5JjPyaUI3YxNsquObwygxK2q6pge2r2A7LFuUllh6xpOc9MAiqFXww2mSk0X103gVkGTUo35rX0xRbMfaWORRMae1oIY9lLoimOcqNxPzgQ14OTt+qfDFJ7hW1Gm+4ZOM9MQIH60J4IJmND8fcWVzCfwquJvEO52PqqyEwqWefWyJwr9V1KaINTURv9R4sjzee+2evIyaN0q7exs27o3eK7AwGoq9iErd4sMXjo7zUpjGIwLXYb53Z5QivgdIQgLujN5Qc5VUd0HD5BJDSBYQJv8Re+rTU8Tfhcfkxv4RWwACVTCp2jPVClE/I7byVLpEJHE/hXq4xWTebHcYncM8fbwn00JYRALJVTlanaOvovmqHEZfpOpKy6rEha4AK15otXpc1ndAWTRKJmN12GBnnCRTQJwQ3WKarhZXrwqAT86zUYT6IhP8hb7Bq8nY9opeF0PfmJl3lrd2n7lr3J7+xzCoALjbRKAdSZXa/BPEWKikc+apOosmKTd9dm6/pL2uT+x37uiT/Shiaqv/9w5ZS39RPznDtkkAC+aWqrj3aVeYGcMu8T7Bqrjpz5CYO3yjMROsAL7qo9OCixxVXmQpvV3eGSRo4eovV1vABO5f7q0+ECSZL8w4zR9A1fxcfoKfoxNRTrZfwXdCz4p7KSw+y9afItiPPC1Eq6aE2wSgJucMTTvNVfaZzHiE3/d/lNEo3mg576AlYtYte094Us0ObzcXzK0w4pXXKViXdBA6sx9xx7+x+kKYMVj5bg35Bzn0/iDN7gq6jAfZ5FGozhYjtwXhlX5PvnALhUa8ObfFT5XdTS6J/1VXmmPAEzVvTZdjjbcIWvkEPBCF90EfRKsHY9opxyd61wSI2Nu7RJWVU22AIgUnAADp6x7U1PEzbaDpWdU1B4ByKFnVXoMaT+zjdLrq816PeR8GcFMgLAAiVPN4PnLpzcW73aueMNAsy6x88ZqDPnVaZzcjGzSA2Da2Cxl364xUCqm3Z71z1Z+758yarcRfbb6fT5xirPMZj9Ra6inPbxd/3CmeNd1TdzYXkN+BVPZIwAYxa1tUknrkHLlX6iYjIL/fFlq83Ztwavjsu7nniZUYZ4u6rSmThOoQaQgQOK+79SWMeir+UrXBl3sEQDMlviBGUKrMnFPGXqzEvC9hi49Q2gHkUNUxl4t5c9+MRf+rKZMe4A9AoDpX8YYJ/POs/5/9hMinjXSCmiv2uMOnh6fl2pRfWfvW6JlrnXhvSrqqpMEewSgFx1hgOFgKDmMuxH7MvZsZx/zB5UtTgbWbFNWx3r29KcHRv1U+DEm7v66wMDq8jdGHWBTHW2PAIARwwljFIIe9vKHSIBGUEyg6sqmaOK4T3DKW2I2TPLZ3zxwJoi1RwDAItBQvuJ7vf3G99MARgrOvGOqyDaN/Ut0Ph62SMdQIgRWfix+MF6wLfyPgB/vp7p7jzmyrLn+J/Mn/C00w3koI+9rpG52su3RNxriVJKZCGbdsSVmLPqGX9XVM/Hc0CH+ZvRvANOFyx7VUsKq/8pEad1oX6N68UnlkyUP/QJs8Q3EGH7aXYNrvbL1madE5asKscNmUL9eTOrUAVXayqvGhxpZpwFXef96dNyMsEMA/oEBNOXJixpW8PIv/4FfPsUcCWPM0bdmNDq1Jyys2ZrGW+8rh28680j3iI+oPxEqE2xJJocGYWrZCV57d8vfuaP1Po3/41OTgVp3LNMzWnAHyF7BeFbYEjUcBgimfqzZQ9M+yVvTanVo6NJhZdOV7zyowK46hu6Nnwp0NBsz/p3LRTUOlVCAydLMGCXb4hcAtuyTSOEojbP9z6COrtQtQRLfhEuF+6vLQODRnMIYAOhcbUukQEiOcJwUDlSd6n8NRdtqX9K8p+48kCqPKfPxi3VkVWbBTXPNlDAQxvAttuSQgvguv5PCp1m1YxCxy7W+gLM+/qWPny1X22fYka07O9QlGQnimy0ucvrv52a+K+NzhHZlduSNWA30qUNMRu0L89/B4gtaFnR4gaTGGdS+GUGt7oaGhhZSlSq0LLbDOfQB0D/CF0Y6vda+ieAaqhwIOMIHxOm5Ta2tNqB/VVfz5ERIB/SJe1crp5faVxE2VPkXWxZiegVetSTA+3kY3sRtvSwwtS+JUdrN6YX2XTR7TjZKQ2R5gUVMU21WYMrAA9lr5smJANau0RF84TGnl9mXET8/ncRxLCDby2KLjuBGoTpYIY2KQM+OCCGQJbM6KZzm9CL7OAZ80XAsfI+j2nw4TiblSkL6Tvp5wuA9oFbIJC0pQKinJqTwsNMr7A/IkKlXi7/Sp9/0enVFa5jATcOM8IUEl/sBaN21QQBAcqkaYJXTi/t0oWlFnR/vtG/vI7Y56JPUVx8ZLagF5GmYorVOL9nThoRXW2rOAZ136KlgyA7xIZDZrpWGdrQB8jQEVjm9D+hCHfkv/6P6Ch9e7oA3LuAVvgizrZyxXgDaAvl+pPQ3pxfracWeDhsmlpEO+dw65Ej6NfSqnVzMzYTu5s8UIrQE8jRZwmTNT+TCAIrmHrJpXZace98tW7bs3jc6j1qeuXFVoT8e8QPECE42hIrFkPg0qvFQp5fIRSxviYhvYxuihYPR8Qha+onTj++C420CZ0HZNEM8VgT4nSykpX87/fQuiNZvLJTpskrRBohEd5qWdtQ9XRdWg48MXgrKrM8X0Bqot6DFU5x+ehccr0LGBJY5DDFZCRiMPAst9rsY/08h+F87quUPG2KyEtAaAOIVP+XeXn4B/lDeCcreMcRkJeBVE3Vta61zri5sAM+Ou1BmKn6HJOYAdXq/mcbph3fBcW95mYFB3EIsFwDY7kMQunO6Z+vCcvD2eX2g7IEhJivhZ0r8D1pa0+mHd0H9NIOgbIchJisgCHZ7B2lxQacf3gXHzeK5ATw6Z7UA9IUBt9Ji/8z085ThTZ4bYLJz32oBQC0TZDg/4PTDu+C4uTw3IMZITasFoDwM+BYtPuj0w7vguMk8NyB4YHcDPFYEep1AzqchumfrwnKQaC3gvVvQagHYSGmngkg4TfVP14XVeI/nBqQY722EyUoAT5b8UNxT/3RdWA0+6aRnAS27aLUAQFqaZbTUdQ31BbzMs+N1WlbfCJMVkA/Ga0+LXb8gX0Aunh2NaVkNiwXgHRgvNS0eq3euLmwAyVQO5lmPLBaAvTBeOlr8k+7JurAeHXh2QJSoZywWgNQwXggtruT0s7t4jDU8OyBESF2LBUD6Mtjzu9PP7uIxevDsAMW81ZkjX6WkMSGVnyf9fEoQG+FlB/juBFocLBiUjN9A8Ur9s3VhPXiz4IlQZm2MmEQI+NuYFq/WPVUXdmCVlx/9oGy2IUbLYTZQ/osWX3f6yV0kYa8EPz4zxGg5oGfwEVpcXu9MXdgC3lt/KZTtNcRoOfQGynAZPMPpJ3eRBD5s5xgos/Y6EPPFQfwpLdnxXNiPel5+BMFWraGlAgARoTEvtRsn2DcwkmcI+G/+aqkAwF3gCloa+Z9KBuLDKMZzBEy39Wf1UkBXGOxvWvxA90xd2IIJPEeO07KOVgoAun+MosW7nX5wF8kI5kMNQ8qhIlYKwBEYbBYtLuD0g7vwgo8JVoIW7bFSADAODEQfuuL0c7vw4pyXIx/TomBLApB7cZTSTUXzot19KpNA+yVue1nyBpRZGCguCFIYnaLFboQ4nwFvF4wWWs9bJwA5gCxEh2nk9GO74DFHglMTrRMA/Kn/QEoD7jj92C54dPTy5B6UWWgYjorgsqTUjRPuOyDhguFHWcA6AQCHE0hF8q/TT+2CoDm/NYdgjlUt43++eEr1BC0+rn+eLuwCHymuPy1qZpkAoDHATlJ67z+YGdp3UdjLFbygtyxzHKiXuAqk1I0T70uY4eUK7tdXGWO3GCeAKA1A6R4CfQnfernyPJTttoj/eLY8RPSAUW7KWF8Cr/nPDmW/G2S4EM8BzXqktJ/OGbqwF3ySqLO0aLBFAoAxIKhb4E6nn9gFg4+8fFkGZdYkjkJ9TwLJSh/hqgF9C7zaB0P5vGeQ5Sw+BYrEDdVz3+kHdsHirJcxF6AsvxX8X43hwEk8Mk8Npx/YhQBeT6DEVFBmRbxY1Cz0JAnRY/bonZ8Lm9HSyxrcBKQ3z/+7I4AeDTsyS+/0XNgN3jQczfeam08gmxnHoAGIl+mcnQvbkdA6mTWtEqCwsln+r0LLf2oM1Nd1CPA9fOdlznwo69LNGN95DF+MI9B8sVmcflgXYvT3MoeJ4G9yF8B8ANaQAKGJbqYoH0RRrxlwAATz4AI3G+X9E+RkBrhNyis4/awupMB7bLyAhUNM8L8286X/H7kHShzs9KO6kAIfLvAeE7/XeNjwdwcgneBSMi8GF76CAfe8DDqPpSuNHgVvd2GobyQVidX0zMpFyoGP3ZKPSTD/apwh/r8dy9AeT8NC3HD6OV3IgHzvtzDFHxtg/5gqAtr0CHgslfYZuUhRxPJ+mxH5sTj4O9387ydU9c+hdY2dfkwXsiAB3N5lipvf0sf+NP2FhJtEkMq2mmfjIsXRLIpn006mvPlvOtifdp7I3rsa3QDUcneAvgzeLsjTmj2qx6bWuBMM2PYoQUS1RxraoIDTj+hCCZkIo9aym3huZFp17gdd/2u/BNEwSET9ndNP6EIZ9MJWGMm/aM4YRe5Htm3RQ5LkpMO00XY3OLSPYxx9mXcQ1l07kijH/b4zx8kd7upASJiYZ5x+PhcqiP2ccGuqeLs2vnKIBPMLt/9ZnmDHe9C0PefC1zGfsmvpeIn6PZt2X+CNBFodLpzlUR4laoGDMO1AS86F7wOihD9YJNMmoceJa9cyNFeldfM6vioeuu7A/oA1sNd715T/XvTyfMj/HW6SUP8AZPXzPOhhnM7Ad5itwjD3AOAnSDUN2Jb3hEEqU17xuPz3U/wRAYyrddAIiYHbBJrDUi7//QgbGN6VX6Sz+8oaw4RHxckJOmm4cBLB7N1PofSx2vvG7it4Scj+uPNOP5ELfUglcAosc1Rbv/hdqSWuDLqNdPp5XOhFs6UCJm4uEK/WZ3yVifc8Eng4yemncaEfN0XBIVZXeF3en+vspt2fS18YD5/uhgT3S1Q7I2bm1H7h+0TanAlH183s5JFBXNazRgZ34QPYf1iap2NW/ZazYv056dOHh/9bYVa2Qh4FvNPE6adwYRw9y3rM4fNNOk4PLnwP0R8b8whIxuEqLvv9Ht8aTSGe+OYQd+/3NKDHRCMvgZdmuBGAnhoczaGT+0uz5HZ6zi6sRHCvDzQzP1/Z8CLuq/+pQ2zxtgHqzB/97oxTbuSfpxV5/vpMSQayl3uuwwjzo7jwZUw42PlBhJj3td6t+MgN+PFfQfPc4zZ0/udWSI7Q0M9DLvzWeXnxOu5h34U5BOYpViRTkSkabIxFiJ90rciKItcOpaS18cr8Q8bV+zVLxYq7CxYs2K7i1Z3f1nF3PkYRuGBQzZPECHnM2na5ftF6hsjY8Ua5afwXKXF2zYtHB6j2SQjzwpit8/oDH5ad1kdiBzR6c8vvw5xeSz/EioISWamW5OyganjAhU3/TOynGPnKQRUZ2MQ3/dLQfBVd5BPbNlKftwvAq9fl1vLYOuUDxTe/yeU1b/WDou2JnQLwGGfauyKgGYNnKS3lbYWe39RUUk5Hbmkm39VmAfB4PndvvzVi/j3Fhcws23HEezEqTHitimxn2wXAE1TJ1YNqwQblG6ZEWR+CBaHqTPDclnNBs18APJ7ujvk/7q/XXa/9vlN4TmURy8l1nJ6ohQeelxZLd7dOAC69X7Zf4Z8aVPhnW7Z8gsELO6EYKTq/5ZOEL37ifJOZeWm+n/rlT789Pf/TGSVz8LGE/5buF5uTXeoz/4QXb/K/hSs6tD8iuLGcWlWSgFUCMHQwvOhjm/7dLwIHH5XiC/rnOe930T8EIH8UXazQGnh+Xvlt7yeRB6KKSvaLfQOXeUxDTEnP1al0F2tbr5eiYJUAzBPWHNowlY4dp9GHwjoc44f2CwGIpT4no9uLPpiBHWvG1ZTsF4z87/qyKCBN8zmvYYP/SZCwTQA4LgxCaqcxoNM0Bf8SAJqPdonkz5QrtkKy+F9gb1ZJp/VmGNf8pEReShsF4PF7mG5sp6fwkvqXALxENlK/6On2iK5v4jy5RpfhjPiKeDNmqwBwV+nmJIX3gX4lAE3IMmXW060OdTjNpxBpbCTsLzaIau0VAO5LMnQK7wL8SgA685M9rOdnEkuTTUQqrm6vCNpQdBi0WQCukbFTOCOOXwnAbH6y6fX0orHG48Ypt4QkV6LsxDYLAI2zmyZl1pKHPwlARv5THpdHR68JtQhX31NrO5FKwLeCKrsF4HUysonISgbgTwJQhJ/rGD29XiAru1lV05qRujWvElTZLQAJxFggZS+F/EkAOvJzfUlHp7NkYQP+UG/9rOwrwG4B4MrwLXamwFJS+JMA8InJPCd1dKIvgJJamt8nzb9iK2wXAKKIOCBLZM++AjXCwy/XO5pB873hiD9enB7+Z4vvh8i5W+kTgAHfNKoRfmDn/LqGDqsTvqi3ofJ8GYON5sW+T/9J+Jy/O8ibZZBY1Je0j9l8Nd8pQlOyieNEAAJYc2XbBaAB32KrZPWk9rVp4gzPvXJ/anic3Bffp8qNvjVfxq3T8SrJIOuTuQpAUqGe4eoFcqFW69Z0ooh/1duJsWyL9xaSffeIOSHJ9zVFJEhnajiMeg6MeXOTtEL/NGkic2MnAcI3z0xtHdaSDl9LE7JLAHrzLWaI62KfXUsSZ/KIu35Q2aC0w1vCLkGffUq61PYooa6Y3IKvBFMYndP7VuEjAjG5ogbwrbx/1yOuwiIBSLgsiiZRq6LUG+sEqZd/SwpBX+kadgBPQL4zns+ZctsFoKD8wz2a5pFEp0byA+YpJ9ll2gJvvU4BuPaVRKt8JZLq+DAf7CvT++6JS/pa9aSKLpEA/H5SagbDS4i/MtFEo/e5VsuJlRF8lw809oinL1rmJWu7ANTkWwi1nDcVsm49lHOreWa1TA/+slufAJToI93u9pMPOs8W9gaFP30/yQC6B5NIswLQo5/cHMqKjaVp1BGtuQPoF2CDxh7ch6TL5RQVAJJrYRdbXqW1EqfGdJAk9m2UTPsz/PZRjwB0ySrb8N0RXCCvnmHjefLvhcdszMiYXDACMEUhStA00TanBKnrI221IQKd+UKtrHqVdKmdkgKwkmyC2B/1DI8yAlpIEFvTR675UL6JDgHIeEGhZdvgld7/jWbnwOf6msQFs2OhAIzMp0Dak+aQ4LnGU7meOkXTupPUxXk1syqefGi2p6QAkL3Ha0zxe7ggkRfabUjffsZEJg5j3GURrS6QaK1v1q1zKmepUNa70uQWVbsADPiMqUp86dbDMqF0Q3h1MM8SdhL8W/8mt5OlDQKwL5KUji7XfsG1sGpTCpQE04wdwiDBu2ExtFwITiLNy2vnFT0HoFLWbgEgpu6zsDQcFm7YJmLIUncL/MSDeglpnSd1m7/gX/nRmW483t0sJW2mF0wG+QmWLwiAsziT+rX120OS/RcmPNrrlYHR/Om8GzsJ3nWjadFuHgZUAH4m9t0RqemuPyEX/SykFjzZHrQIT1ddddl7kcbzVNsSUOuRjiknAHXJTwpf6d9TQ4ZCrMX6JNg7DRd83oqSXUN5xr4o/vfQf0UDqyqC/qIDJX6M5/Mr3pj+/PmuL9uP/x2t2er9T8yFT3qdyn1qE2F1lzY84dLMCZJbSR4uSGj30wJFqc95Ne0V/SnoMCChuc9KQKm9AhA8liwyvHb2U/e366IrIrAi2sEeisil5kOhoiBBvLFWE4Dc1JMq7xTBpOcwfhYC/Sx/AN+XHAA6YGYGIWlyu/++0BY/cC5fVUao8/wIh/TUuiHcJrAgdOJ0JB3/mZAfCqX2CkBlMmZWKH1ISm9JeC7+SNfhL6ZiG//zqaNhYioCELyKDLJZvNbfo6m94B6bz/mRrEB4bZ+o8xR+2ztbnF8s/hxPVXgrm3Dfw2B0dzFlCmIKsp3Tjmgi15ip1FYBGEeGDAKD1OLkKXNIuiR/TOpbT0Ce8Sfwc1ompiIA/ckYZ6R0c2BB4SnNVoHqx+MJldBX8JuEPlJ63RMR3trnhTUD3vQIcLiG7M+bPN11Pcxawvf6DArtFAAwR4TNaiCxf4lsKkkzOhvp9gIU5+ELd2uZmLIABJLEnYnSmlSwpT3M1qCC557EAxADiOWShEt6a+OuCGuCbwglwHMv9TVJIsFkYWtzOhDC93ofCu0TgGrg61oI3FMbk9KtMkTXk23APfgNrJGSClkoCwCdw0Xp7pPoQV6ga61Jn8ojpbLm9ZvvSN9oVAuQH7gKXIt5ETT3pgSREaRel6EdUTjOhkK7BCB/BVDaxZyGmnf50iWyoQvoYR6M5IjdTFZOA5QFgHxwC8m9ZRuSKTxgK9LRx7ol0W8xL7wbZQjz2oc2EnV3yosdRBNbivcoE0jtD3qY1ZbvhTsHqwSg+0j6OTzxe7s2+AxxaOtYjTzjn7JU85PD4wVayCtmPNm1hJ9RFIA9hL6sJr0aaTKMrYBPtdTXI4u3rq9cXIQ/+d6S9n8DS3lEuCdyC8xA6oZyOnCb/PSg0ELv4Hyhn4eszVa6kFBfH8DYui4nxQqhc4mSLoZuA5uTrbmWGxNFAZjOV46Wj2JDpiAQAKo/CpHqxrt4yH6npvDd50vXD3leLAK1BeeJOqSmoR5mkW8ynmztdw+/9KL0wt5SILuO9N5EC8nt4aWB6hNTFAD+QOnZK09gqIwA/EOmJiWH1flKWQvIEfyrZZBci/U/DReu4V32FqsaqdC0H+JBjt94sLFdAB6w290E8n5ooUD2LHkBt6OFVKnQp4bqxJQEILgVX5lLnsDfqgIgdYaZ561rLf+Z4g10FUK+ZJwnSFDmmXoK63uQ8rf1MIv89uw4Bcig6yeCb+EKUqWYfpVk2M0GywK2ABfU7GCUBGAhIaNgfzZfTQCySxkwVvBWKpzP+UebzSlhxUfslzRfJqjMSIon62EWOX+/AoW2CsBrF0XLf5mvq6VoAErcnu9B4ctAOm7tOMW9oJIAkGeeqkCAnOflBGCsVK9h3so3wmSxw9tEzQlgz9uMCHTbT6tiyUZ6mx5mkbuUN6QWw3IBGD12o4RPOLkHLqVI9wAhA/r0YNYcbHt9heBXSgJAXFY/k+/PHVUTAEl91CWPZkSoLu7+idj+PvxiyEXkZh28WkRIVYRSqwSAjVN16Xq776UjT5KjSE5FutR8pRiUhgminkSVXy9HQEkAiJliOoUZqAqA1Cbujnb+ezwa7nG+xZSjv9Ny4mxRS0cArj8IJVTaWKYIWrxsXnj4xxU/Dv91477q8m9nEglR+QDzC5kscydyZ5VwFdeekiagJABEm6vkUqEqAC9LdPpGjwDc4dQxvgxtH0pXlZ5F1W0HCGgYIlxT220CBSBmlMrGjDfJZFnjwIwzhcsYV1tSo6IkAEQlqnSIUhWAHyU6DdEjAJpyh4+gV6eeZ0kpvS8rrp1X7UgnvGNLaQEgluA1FJvdIZMV2gWNEynMWx2UIKAkANn4OglXBQJDAtBRB/9Hc5qwktrB0S8WNfLXoQokSW5CsTSlBYAYy89RbDaePOHrwqqMg2oJ17K3+EuoJADD+Lp/OXkYEoBnPdpxTOOK/UG2/PnIkZrqgndoZlVPYp7LXKaktAAQK/Gtis2qkyfMJK5sNuOYYDFnirwtlASA6NuV1CiGBGAZX9kvXBU7ta4xvYCeQsrI1X7MeK1kGhEyTLymlBYA8uvrrdiM7ljzS1XHLivHZuupJGyhJAC8UY/nI4UZGBIA0inc0GpKowN5SmowTI/fmoOKFCZdGCuWlBYATYvPcd+T2crFuN2fBQPrBwgNqJQEoDxfN5aTxy4jArCer/zY0GpKYwQxX6RunQfJk6/VSGURUVG8w5SntACQyKbKxky8ya2SvmzRIDAiLyOoVBKArwlxhVM0saHVIwCH+MruhlZTBuRioCUp6kmuRuM0ugYRFazg45vSArCB7zBc0RWfmISsUmp1MxuVAMFmUUkAaFjGa/K0iaG2HgEI5rW3DzgLQRxYJ0uUeRpoohFMdGhBrBlzSgvASDLxIgqtYonTtbIBYPO9hNwRtkZJAK6QTgflSateB0sJALnpGa2erEc7yJBgAEbPG300RZaiTgEP2YqUFoCV5KK3kkIrugfsr0yuC1EsnWErFK+Dye5BwR6ARCHQJQC8zadniKHllAbZN0E0sEB6EPpJA4lAcvryvMrWpLQAcORVlEOh0Q98o7izKuRoFDLWdE7RIIRoUhNlD1GLyFWcLgHg7QHgc20exL4Otc/kW+qJmaJOoj1pLfw4pbgAjCJTOSXbpgu5+S+jSo9clxRjijtJy0Uy6CZANiQHtUnSJQD7ea3Nauu+ASPIXvcLKM1IXRPbqCqVB1Mbo46CqhQXAGIT5yks24bY7Hkqq9Ijx1s2WiqxKJGy+chI1uOuTGineKqA1SUA1Pb+MmcVyJE4jnlf1SAzFPmaip6GOsJ/JaxLcQGgrAmSu8vNSPRcow+pkiOe1aeZ4nN8sWScdXIhLHcpWZ+urj4B+JWvXiIdEMoAyEaXdVGJpp91z6fKFEigLk8fkT9KygtALjKbVTIRcVKTFjnVyRGtDmskRiz/Je3z6xI9YoykC14x0DDoE4Aw0rOgoQUVg2gXBeG9uPXUBiOqoxIFGrOd8QtORsoLwIC+ck/EPzE5KETcVCeXjW/MXq8T3y7p3RgNsfKahG3iJBpZVa8AcC1Jx3qGVlSInqXJG1PobEidxD1Ry+QpbKXN2oo1XykvAFwBMp+gFyWqr9BUMxqMnon9sOAYWImnESqpcKpGbbeWFBNW1oFIJLoF4BBxKotRCHbGYvIg2dxmI2hQvDeFdfHgQhDwl4xWc8Rc2qi0xGfJAQGIJT9az2hxnPOm9AVxjDWaqi7lbHNE5o1LFSXSORM/ocvSpwYrIwch2ZF+AYDoR0GVtAUebT7cs/pX6S3DCbpWEeIgh3cwzl45ychqx8GKrq/UC9UBAeDqUM/LgBmCNepFr3giBFkw0k0Ti8s8clku8MSgwReX7OckEFgW1u59muM4tqN3x0zcUPQKQPQOSvj6/ySbrGCdvZK0o5HdO4gM6Rb9CXsRqe1qHcwJdWmQyM+pzmSIglnoigQFRwQAPgIeTzZUB+yfCN6RgjN6qseLMXs5Ywg84AWymdsheAMG08/4SXJAxE3neMamoOt3v36RqUiHXCXPeAsOE/M+vQLA1YFryri9rwokPP6ZLKUFcR34Tfrdkgfh0NqlSQO0fFklmXZrIZMYLl+DgSBEixrNwiCoS6U3VEQAthdUgtzTGhMAJtuV5/kWybGbMs7vjpE52gn6JJtBjS5b6XjyzzW+yEUadSlI5Ir1A5CanfO5ramP3GrFnBSvCII8MRjzM/EeEcSjUBcAbgiTy7NVufod1mRYGVa9aZFly3OuTX77MbacuOVsdb176q/Dz3fOuiOCmVBfGY3/zbzsxFdva5h53OmRjdblvM6mE384QZrAJo8m/GatAAS3Y8m/Nqzs9U5szN4GwXJDeWJCy5Q9NzsSW4tVIXWCxE/xiGlR95hHDrUyUfehd3ULADc/yqMCPJxqMSWWfn0/QVg5Dd09UX/K3Xw7IwAc95xyquSAX4UduijFXuwnYYdeQdxM4I64J5sMubTFwH/sFbaTFgHgjnb1KAMDO2z1qOIdBR+24KujVfs/lPfDc0oAuPmtFIY7tkvUXsnesrCUMrznUlE7YdSW6EqSiZdvPwldRgRAkLNTkwBwg7MpryfmBinoUUFcBWUfkp/fVe5fapdCZ8cEgMuQTm6wiAYSx2L57OpRy6Vfb4v7CltmEbW51l30pdjcOKkmN/+3IBanNgHgoisrCbgnDjfs495XXPvNqlfLwS+2ke0dUGGKYl/nBIDjTn8mNVREd+kwcP/7LUiqeVBhWbOewTsEbaWsgKuN6gQtanX/1itNp/iiimx7jQLAcc0uTvXIYGo7wfHw6EeyH7jrj7R4fwWPWxsk3T9mbo38ShScFACOq3pE+DvJ8Zx8apU8c8rGCJr3fUEpaGDgnO1Ma5mIOot3Dr1d9sHa2j+V2EcvcUkaD8F3Q7MAPD64/t1P/HkOKJOliYRGa0TxD3MIH84T9/6ouqqj8Kg+aFWARxpT+/1VVe7K2KQAmEbzIV9/1SkieZohk39Uy5mycteB8mU6jXncIfLM9Z/a51YjH7jg31J5H/+68qW9Xr59U7XWCBIK+nc9vYTo8kz9rOcKJf28W5/ccfviwSkKn/Mup2oUfLd01yc/5Vbbr383aJneTHt3vh9Vs5NMRPXI5y92bKaTXoohOqz6tUM6gp6yKh116HChJSA3LUUMdBZBkx8gma6+pxNiRPUVP86SPogeqz1jpGZPkv84+JhqQboE02ewaNNtuVgF2/dWumZ+gKcdsbyWXU8uP99Cl2fn3pORAV0fw/8myCHgH6dnYgaB+96WUnjriSvyX8UW7Zt930bg0ZZ3hQJw1elJ+T5SkeOp9lyOPovgTA3fRzVanLsFUMXX/GJpTcvn6xhfpSD5GKwyT+5pRx2yg17n9FSsQ2Cmf3ckqQt/NU/rKUcqopy/NME8NV9Cs9/nvha03zydpwHNZH0OUtHATFb6+fsIYt0zYDIOXBolnU5mcQjhf6swnURd+A+uezz3Cu4TaYlT1QcNmql7ABc+Da9DQegP/cE+L9XrP+Ad7kfGybvwdVD3X0+3sTNvhId//fbcYeyF7NouTk/ShX2QSMwhwGcZzY/iwldxKECN/3Pd3//TjKOJyuzvao1rpwufRZ03Fd4BiT+5ZhNPP67dkPEM6faepsBbLvwewetnPCzEMj/og3anteQldPHUYMLR9hc7fzSrbLnCH36d69Qi8wRduHDhwoULFy5cuHDhwoULFy6eGvwfYJtHYgdvRCkAAAAASUVORK5CYII=;" vertex="1" parent="1">
          <mxGeometry x="641" y="367.5" width="78" height="78" as="geometry" />
        </mxCell>
        <mxCell id="OoSRVT0vRoyz57f_keUW-28" value="api" style="text;html=1;strokeColor=none;fillColor=none;align=center;verticalAlign=middle;whiteSpace=wrap;rounded=0;" vertex="1" parent="1">
          <mxGeometry x="468.98" y="300" width="60" height="30" as="geometry" />
        </mxCell>
      </root>
    </mxGraphModel>
  </diagram>
</mxfile>
